<svg xmlns="http://www.w3.org/2000/svg" xmlns:xlink="http://www.w3.org/1999/xlink" width="895" height="24"><defs><path id="a" d="M.228.118h14.13v11.558H.228z"/><path id="c" d="M0 .086h5.222v7.431H0z"/><path id="e" d="M.001.02h4.79v4.802H.001z"/><path id="g" d="M0 .019h10.513v11.435H0z"/><path id="i" d="M0 .019h2.928v5.89H0z"/><path id="k" d="M.062 2.666h26.762V.242H.063z"/><path id="m" d="M26.866.105H0v14.593h26.866z"/><path id="o" d="M0 .017h25.994V17.87H0z"/><path id="q" d="M0 .003h.81V.11H0z"/><path id="s" d="M0 7.762h34.85V0H0z"/><path id="u" d="M0 7.762h34.85V0H0z"/><path id="w" d="M0 7.762h34.85V0H0z"/><path id="y" d="M0 7.762h34.85V0H0z"/><path id="A" d="M0 7.762h34.85V0H0z"/><path id="C" d="M0 7.762h34.85V0H0z"/><path id="E" d="M0 .116h11.007v11.148H0z"/><path id="G" d="M0 .116h11.007v11.148H0z"/><path id="I" d="M0 13.884h34.89V.292H0z"/><path id="K" d="M0 13.884h34.89V.292H0z"/><path id="M" d="M0 13.884h34.89V.292H0z"/><path id="O" d="M0 13.884h34.89V.292H0z"/><path id="Q" d="M0 13.884h34.89V.292H0z"/><path id="S" d="M0 13.884h34.89V.292H0z"/><path id="U" d="M0 13.884h34.89V.292H0z"/><path id="W" d="M0 13.884h34.89V.292H0z"/><path id="Y" d="M0 13.884h34.89V.292H0z"/><path id="aa" d="M0 13.884h34.89V.292H0z"/><path id="ac" d="M0 13.884h34.89V.292H0z"/><path id="ae" d="M0 13.884h34.89V.292H0z"/><path id="ag" d="M0 13.884h34.89V.292H0z"/><path id="ai" d="M.002 0H8.07v8.058H.002z"/><path id="ak" d="M0 .002h10.325V9.99H0z"/><linearGradient id="am" x1="-40.396%" y1="50%" y2="50%"><stop offset="0%" stop-color="#1D2672"/><stop offset="100%" stop-color="#006CBD"/></linearGradient><linearGradient id="an" x1="-40.396%" y1="50%" y2="50%"><stop offset="0%" stop-color="#6E2C2E"/><stop offset="100%" stop-color="#E90033"/></linearGradient><linearGradient id="ao" x1="0%" y1="50%" y2="50%"><stop offset="0%" stop-color="#007F3D"/><stop offset="100%" stop-color="#58B724"/></linearGradient><radialGradient id="ap" cx="-15.448%" cy="-20.731%" r="194.365%" fx="-15.448%" fy="-20.731%" gradientTransform="matrix(.5145 .5145 -.3087 .8575 -.139 .05)"><stop offset="0%" stop-color="#75CFF7"/><stop offset="100%" stop-color="#007DC6"/></radialGradient><path id="aq" d="M0 .005h11.305v13.94H0z"/><path id="as" d="M.031.005h11.305v13.94H.031z"/><path id="au" d="M7.266 9.37H.472V.446h6.794z"/><path id="aw" d="M0 5.253V.6h5.466v4.653H0z"/></defs><g fill="none" fill-rule="evenodd"><g transform="translate(855)"><rect width="40" height="24" fill="#FFF" fill-rule="nonzero" rx="3"/><g transform="translate(5.566 6.206)"><mask id="b" fill="#fff"><use xlink:href="#a"/></mask><path fill="#2E6A24" fill-rule="nonzero" d="M14.355 7.938c-.007-.016-.026-.023-.042-.029-.612-.203-1.228-.416-1.778-.763a7.138 7.138 0 0 1-1.472-1.255c-.895-.983-1.655-2.102-2.676-2.95-.585-.487-1.198-.532-1.87-.526L5.74.118.228 2.026l3.503 9.65 2.674-1.17-.25-.585-2.062.902-3.052-8.405L5.35.928l.633 1.875.003-.001.824 3.055c-.007-.024-.703-.026-.765-.029a5.064 5.064 0 0 0-.9.026c-.567.08-1.138.438-.987 1.108.04.175.132.337.255.466.193.2.454.323.723.39.505.128 1.015.045 1.5.259.532.234.918.692 1.143 1.225.022.055.205.624.194.626 1.144-.123 2.4.22 3.433.685.225.102.443.218.657.342.12.068.496.364.634.351a.062.062 0 0 0 .024-.007c.065-.035.14-.283.174-.354l.19-.384.379-.768c.15-.306.3-.613.448-.92.143-.3.344-.573.441-.893.005-.013.009-.028.003-.042" mask="url(#b)"/></g><g transform="translate(3 8.476)"><mask id="d" fill="#fff"><use xlink:href="#c"/></mask><path fill="#2E6A24" fill-rule="nonzero" d="M2.623.561l-.42-.475L0 2.076l4.75 5.441.472-.422L.887 2.13z" mask="url(#d)"/></g><path fill="#2E6A24" fill-rule="nonzero" d="M25.804 13.637c-.034.777-.256 1.365-.663 1.764-.408.4-.982.599-1.725.599-.78 0-1.378-.253-1.793-.76-.415-.507-.623-1.23-.623-2.17v-1.146c0-.935.215-1.657.644-2.164.43-.507 1.027-.76 1.791-.76.752 0 1.323.207 1.713.622.39.415.612 1.011.666 1.788h-1.398c-.013-.48-.088-.812-.225-.995-.137-.182-.39-.273-.756-.273-.372 0-.636.128-.79.386-.156.257-.238.68-.247 1.27v1.287c0 .677.076 1.142.23 1.394.153.253.416.38.788.38.367 0 .62-.089.758-.265.14-.176.218-.495.237-.957h1.393zm5.714-.524c0 .914-.219 1.624-.656 2.129-.437.505-1.045.758-1.822.758-.774 0-1.382-.25-1.824-.751-.442-.5-.666-1.202-.673-2.103V11.98c0-.936.22-1.667.659-2.193.439-.525 1.049-.788 1.829-.788.767 0 1.372.258 1.814.774.443.517.667 1.241.673 2.174v1.165zm-1.397-1.142c0-.614-.089-1.071-.266-1.37-.177-.3-.451-.45-.824-.45-.37 0-.643.144-.82.433-.177.288-.268.727-.275 1.317v1.212c0 .596.09 1.035.27 1.317.18.282.458.424.834.424.364 0 .634-.138.81-.414.177-.277.267-.705.27-1.285v-1.184zm2.397 3.935V9.094h1.824c.805 0 1.447.252 1.926.758.479.505.723 1.197.732 2.077v1.104c0 .896-.24 1.598-.718 2.108s-1.138.765-1.978.765h-1.786zm1.393-5.666v4.525h.417c.464 0 .791-.121.98-.363.19-.242.29-.659.299-1.252v-1.183c0-.637-.09-1.08-.27-1.332-.18-.25-.486-.383-.92-.395h-.506z"/></g><g fill-rule="nonzero" transform="translate(810)"><rect width="40" height="24" fill="#FFF" rx="3"/><path fill="#1A4DB7" d="M11.801 10.274V5h1.627c.55 0 .967.123 1.253.368.286.245.429.604.429 1.077a1.3 1.3 0 0 1-.178.692c-.118.193-.28.334-.484.424a.92.92 0 0 1 .546.407c.128.204.192.456.192.755 0 .512-.14.899-.422 1.16-.28.26-.687.39-1.22.39h-1.743zm1.063-2.293V9.39h.68c.19 0 .335-.06.434-.178.099-.118.148-.286.148-.503 0-.473-.171-.716-.513-.728h-.749zm0-.775h.553c.417 0 .626-.216.626-.649 0-.239-.048-.41-.145-.514-.096-.104-.253-.156-.47-.156h-.564v1.319zm5.605 1.988h-1.45l-.282 1.08h-1.125L17.257 5h.973l1.656 5.274h-1.135l-.282-1.08zm-1.219-.887h.984l-.492-1.88-.492 1.88zm6.809 1.967h-1.063l-1.555-3.46v3.46h-1.063V5h1.063l1.558 3.463V5h1.06v5.274zm2.336-2.036l-.42.529v1.507h-1.063V5h1.063v2.3l.336-.569.98-1.731h1.302l-1.508 2.318 1.533 2.956h-1.262l-.961-2.036zM7.648 14.541H6.347v4.387H5.28V14.54H4v-.887h3.648v.887zm2.206 2.46h-.528v1.927H8.263v-5.274H9.96c.533 0 .944.138 1.235.415.29.276.435.67.435 1.179 0 .7-.254 1.19-.763 1.47l.922 2.159v.05h-1.142l-.792-1.926zm-.528-.888h.604c.212 0 .371-.07.477-.212.106-.14.16-.33.16-.566 0-.53-.207-.794-.619-.794h-.622v1.572zm5.547 1.735h-1.45l-.282 1.08h-1.125l1.645-5.274h.973l1.656 5.274h-1.135l-.282-1.08zm-1.219-.887h.984l-.492-1.88-.492 1.88zm6.809 1.967H19.4l-1.555-3.46v3.46h-1.063v-5.274h1.063l1.558 3.463v-3.463h1.06v5.274zm3.077-1.384c0-.215-.055-.377-.165-.487-.11-.11-.309-.224-.598-.342-.528-.2-.908-.436-1.139-.705a1.417 1.417 0 0 1-.347-.954c0-.445.157-.801.472-1.07.314-.27.714-.404 1.198-.404.323 0 .611.068.865.204.253.137.447.33.583.578.137.249.205.531.205.847h-1.06c0-.246-.052-.434-.157-.563-.105-.129-.256-.194-.454-.194-.185 0-.33.055-.434.165a.62.62 0 0 0-.155.444c0 .145.058.276.173.393.116.117.321.238.615.364.514.186.887.414 1.12.684.232.27.348.615.348 1.033 0 .459-.146.817-.437 1.075-.292.259-.689.388-1.19.388-.34 0-.65-.07-.93-.21-.279-.14-.498-.34-.655-.601a1.749 1.749 0 0 1-.237-.924h1.066c0 .304.06.525.178.663s.31.206.578.206c.371 0 .557-.196.557-.59zm4.49-.768h-1.652v2.152h-1.063v-5.274h2.915v.887h-1.852v1.351h1.653v.884zm3.526-.13H29.9v1.398h1.96v.884h-3.023v-5.274h3.016v.887H29.9v1.246h1.656v.859zm2.51.355h-.528v1.927h-1.063v-5.274h1.695c.533 0 .945.138 1.235.415.29.276.436.67.436 1.179 0 .7-.254 1.19-.763 1.47L36 18.877v.05h-1.143l-.791-1.926zm-.528-.888h.603c.213 0 .372-.07.478-.212.106-.14.159-.33.159-.566 0-.53-.206-.794-.618-.794h-.622v1.572z"/></g><g transform="translate(765)"><rect width="40" height="24" fill="#FFF" fill-rule="nonzero" rx="3"/><path fill="#0076BC" fill-rule="nonzero" d="M3.5 13.746h32.995v-3.562H3.5z"/><path fill="#F8C520" fill-rule="nonzero" d="M36.495 14.106v2.64c0 .471-.361.858-.803.858H4.302c-.441 0-.802-.387-.802-.859v-2.639h32.995z"/><path fill="#EC2029" fill-rule="nonzero" d="M4.302 6.316h31.39c.442 0 .803.386.803.858v2.65H3.5v-2.65c0-.472.36-.858.802-.858"/><path fill="#FFF" fill-rule="nonzero" d="M20.227 6.9c1.813.014 12.435.54 12.342 3.03-.046 1.23.048 2.758 0 3.989-.093 2.419-10.09 3.228-12.444 3.214-4.183-.025-12.665-.92-12.706-3.214-.022-1.231 0-2.91 0-4.142 0-2.187 9.926-2.901 12.808-2.878"/><path stroke="#FFF" stroke-width=".545" d="M20.227 6.9c1.813.014 12.435.54 12.342 3.03-.046 1.23.048 2.758 0 3.989-.093 2.419-10.09 3.228-12.444 3.214-4.183-.025-12.665-.92-12.706-3.214-.022-1.231 0-2.91 0-4.142 0-2.187 9.926-2.901 12.808-2.878z"/><path fill="#EC2029" fill-rule="nonzero" d="M20.168 8.502c-2.301-.018-11.41.566-11.41 1.803 0 .833-.025 2.479 0 3.312.037 1.242 9.087 1.738 11.353 1.754 2.103.016 11.036-.702 11.12-1.665.072-.831-.07-2.63 0-3.462.083-.99-8.953-1.725-11.063-1.742m.01-.974c2.235.022 11.804 1.046 11.716 2.317-.073 1.067.077 3.135 0 4.203-.088 1.236-9.55 2.317-11.776 2.297-2.4-.021-11.985-.857-12.024-2.412-.027-1.07 0-2.901 0-3.97 0-1.588 9.647-2.458 12.084-2.435"/><path fill="#0076BC" fill-rule="nonzero" d="M13.3 9.9c-.686.083-1.702.162-2.283.564-.341.237-.648.691-.341 1.154.3.452.835.26 1.051-.04-.247-.034-.445-.083-.46-.27-.071-.85.666-.674 1.374-.916-.367.914-.698 2.545-1.634 2.746-.68.147-.993-.17-1.152-.616-.377.764.162 1.113.646 1.191.448.073 1.021-.22 1.337-.57.224-.153.448-.328.65-.526.054-.053.8-.654.731-.156-.06.438-.225.758-.349 1.181l.55.011c.135-.42.233-.854.403-1.26a.242.242 0 0 1 .18-.133c.067-.01.166.011.19.078.044.118-.018.267-.05.39-.051.198-.337.847.034.897.365.048.774-.226.99-.41.03.192.127.36.32.457.133.066.298.024.441-.011.116-.028.212-.115.318-.173-.019.28.235.247.405.162.387-.193.602-.329.867-.42l-.041-.163c-.202.047-.4.157-.605.14-.065-.005-.082-.129-.062-.194.271-.856.615-1.684.923-2.526-.16.011-.284.011-.444.022-.127.36-.29.73-.417 1.09-.604-.116-1.166.061-1.56.853a1.484 1.484 0 0 0-.154.557c-.136.094-.263.192-.425.234-.06.016-.105-.083-.095-.147.035-.213.105-.417.173-.621.047-.14.22-.546.156-.683-.11-.239-.272-.237-.436-.166-.21.091-.424.297-.539.255-.168-.06-.12-.334-.372-.303a.712.712 0 0 0-.231.08c-.36.187-.702.455-1.046.685.33-.669.644-1.56.957-2.444m15.018 1.711c-.447-.036-.746.29-.903.613a1.379 1.379 0 0 0-.072.93c-.129.11-.29.204-.545.258-.127.027-.197-.074-.196-.167.003-.267.03-.491.103-.742.03-.103.132-.068.166-.156.072-.18.08-.357-.147-.328-.147.019-.305.042-.311-.167-.006-.203.23-.312.195-.33-.13-.065-.24 0-.376-.05-.038-.015-.007-.106-.045-.12-.052-.018-.144.04-.174.088-.066.106-.06.204-.109.329-.041.105-.045.222-.068.333-.07.22-.52.897-.852 1.074-.186.1-.303.012-.245-.192.077-.274.332-.937.497-1.406-.162.004-.306.018-.468.022-.018.06-.046.1-.065.16-.364-.246-.585-.152-.915.098-.245.186-.46.467-.576.804a1.34 1.34 0 0 0-.075.396c-.2.076-.4.19-.58.162-.043-.007-.072-.078-.063-.123.06-.273.187-.524.265-.791.05-.168.147-.34.116-.513-.04-.233-.322-.24-.476-.156-.13.071-.23.196-.36.268-.026.014-.063-.002-.085-.023-.056-.053-.082-.135-.137-.19a.37.37 0 0 0-.17-.11.404.404 0 0 0-.243.022c-.16.07-.273.26-.445.278-.074.008-.026-.162-.074-.223-.115-.146-.225-.095-.36-.033-.291.133-.579.275-.868.412.028.056.049.12.077.175.12-.04.245-.099.368-.13.051-.014.113-.041.158-.011.04.026.057.096.043.145-.151.51-.353 1.003-.53 1.504l.551-.011c.166-.45.282-.923.497-1.348.04-.077.152-.107.233-.09.056.012.075.097.085.156a.481.481 0 0 1-.02.223c-.116.359-.262.706-.393 1.059.201-.004.413.015.614.011.194-.468.27-.948.509-1.393.029-.055.185-.074.243-.056.039.012.083.059.074.1-.051.25-.183.477-.243.725a.736.736 0 0 0-.022.357c.026.096.095.189.18.234.073.038.169.021.244-.012.285-.124.55-.295.822-.447.048.322.268.543.687.445.146-.034.226-.135.362-.202.068.23.22.325.463.22.602-.26.954-.712 1.4-1.39.07.017.212-.026.284-.024-.077.243-.55 1.114-.055 1.376.138.073.244.05.397.02.342-.066.553-.219.718-.362.083.173.217.31.41.373.395.127.846-.093 1.128-.224.15.273.537.323.764.237.238-.092.454-.252.645-.429.039-.037.035-.13-.005-.167-.037-.034-.1.028-.138.058-.165.13-.495.456-.682.182-.083-.123-.027-.33.055-.566.08-.23.158-.526.237-.756.112-.01.239.003.35-.007.05-.144.07-.258.119-.402-.076-.007-.18.002-.256-.005.07-.385.221-.777.35-1.162-.173.003-.318.014-.49.017-.122.375-.217.742-.382 1.117-.113.003-.233.014-.345.017l-.09.42c.086-.003.207-.006.294-.01-.11.44-.229.836-.473 1.176-.087.121-.238.19-.379.221-.432.093-.598-.054-.667-.26.183-.162.364-.238.528-.419.265-.291.59-1.06-.058-1.112m-.082.404c.064.051.006.247-.13.436-.135.188-.298.3-.362.25-.064-.052-.006-.247.13-.436.135-.189.298-.301.362-.25m-3.909.088c.118.055.095.355-.05.667-.145.311-.359.52-.477.464-.117-.056-.095-.355.05-.667.145-.312.36-.52.477-.464m-7.962-.027c.117.055.095.355-.05.667-.145.311-.36.52-.477.464-.118-.055-.095-.355.05-.667.145-.311.359-.52.477-.464"/><path fill="#EC2029" fill-rule="nonzero" d="M19.127 12.586c0 .158-.061.3-.159.403a.527.527 0 0 1-.382.167h-.001a.525.525 0 0 1-.383-.167.585.585 0 0 1-.159-.402v-.001c0-.157.061-.3.16-.403a.527.527 0 0 1 .382-.167c.15 0 .285.064.383.167a.583.583 0 0 1 .159.403zm-.542-.729a.672.672 0 0 0-.489.214.747.747 0 0 0-.203.515c0 .201.078.383.203.515s.299.214.489.214.364-.082.49-.214a.746.746 0 0 0 .203-.515c0-.2-.078-.383-.204-.515a.674.674 0 0 0-.489-.214z"/><path fill="#EC2029" fill-rule="nonzero" d="M19.671 12.586c0 .315-.122.6-.318.808a1.057 1.057 0 0 1-.767.335h-.001c-.299 0-.57-.128-.767-.335a1.17 1.17 0 0 1-.319-.807v-.001c0-.315.122-.6.319-.808.197-.207.468-.335.767-.335.3 0 .57.128.768.335.196.208.318.493.318.808zm-.212-.92a1.202 1.202 0 0 0-.874-.382c-.34 0-.65.146-.874.382a1.334 1.334 0 0 0-.362.92c0 .359.138.684.362.92.224.236.533.382.874.382.34 0 .65-.146.874-.382.224-.236.363-.561.363-.92a1.33 1.33 0 0 0-.363-.92z"/><path fill="#EC2029" fill-rule="nonzero" d="M19.395 12.586a.873.873 0 0 1-.238.602.789.789 0 0 1-.571.25h-.001a.788.788 0 0 1-.572-.25.873.873 0 0 1-.237-.601v-.001c0-.235.09-.448.238-.602a.787.787 0 0 1 .57-.25h.001c.223 0 .425.096.572.25a.871.871 0 0 1 .238.602zm-.131-.714a.933.933 0 0 0-.679-.297.933.933 0 0 0-.678.297 1.035 1.035 0 0 0-.282.714c0 .279.108.531.282.714a.933.933 0 0 0 .678.297.933.933 0 0 0 .678-.296c.175-.184.282-.436.282-.715 0-.278-.107-.53-.281-.714z"/></g><g transform="translate(720)"><rect width="40" height="24" fill="#FFF" fill-rule="nonzero" rx="3"/><path fill="#F27D31" fill-rule="nonzero" d="M26.714 8.03v.843c0 .158.079.237.237.237h.944c.158 0 .237-.079.237-.237V8.03c0-.159-.08-.238-.237-.238h-.944c-.158 0-.237.079-.237.238"/><path fill="#47BBE4" fill-rule="nonzero" d="M28.132 13.18v.842c0 .132-.107.239-.237.239h-.944a.238.238 0 0 1-.237-.238V9.886c0-.131.106-.238.237-.238h.944c.13 0 .237.107.237.237v3.296z"/><g transform="translate(33.194 9.529)"><mask id="f" fill="#fff"><use xlink:href="#e"/></mask><path fill="#47BBE4" fill-rule="nonzero" d="M2.396 3.576c-.566 0-1.025-.517-1.025-1.155s.46-1.155 1.025-1.155c.566 0 1.025.517 1.025 1.155s-.459 1.155-1.025 1.155m0-3.555a2.398 2.398 0 0 0-2.395 2.4c0 1.326 1.073 2.4 2.395 2.4a2.398 2.398 0 0 0 2.395-2.4c0-1.325-1.072-2.4-2.395-2.4" mask="url(#f)"/></g><path fill="#47BBE4" fill-rule="nonzero" d="M23.383 13.085c-.592 0-1.073-.513-1.073-1.146 0-.633.48-1.146 1.073-1.146.592 0 1.072.513 1.072 1.146 0 .633-.48 1.146-1.072 1.146m2.155-4.807h-.944c-.13 0-.237.139-.237.308v1.57a1.46 1.46 0 0 0-.983-.614c-.583-.03-1.078.119-1.487.445-.424.319-.706.78-.846 1.382-.161.753-.033 1.44.386 2.06.416.577.981.886 1.695.927.35.023.665-.086.944-.327l.323-.318c.03.13.142.55.323.55h.826c.13 0 .237-.14.237-.309V8.586c0-.17-.107-.308-.237-.308M17.28 11.334H19.1c-.465-.888-1.422-.863-1.819 0m2.695 2.23a2.386 2.386 0 0 1-1.743.755 2.398 2.398 0 0 1-2.395-2.4 2.4 2.4 0 0 1 2.058-2.378c.767-.108 1.528.292 2.021.854.336.383.497.906.484 1.57-.006.313-.158.432-.46.43l-2.749-.025c.129.374.333.61.612.71.477.149.943.053 1.4-.29.154-.108.247-.053.358.068l.409.447c.067.085.08.179.005.26"/><g transform="translate(3 6.025)"><mask id="h" fill="#fff"><use xlink:href="#g"/></mask><path fill="#F27D31" fill-rule="nonzero" d="M0 7.771L7.075.02h3.038c.347 0 .503.337.327.634l-.237.312L.749 11.26c-.2.237-.749.317-.749-.1V7.77z" mask="url(#h)"/></g><g transform="translate(3 6.025)"><mask id="j" fill="#fff"><use xlink:href="#i"/></mask><path fill="#47BBE4" fill-rule="nonzero" d="M0 .235C.012.076.105.02.277.02h2.34c.23.01.316.205.311.446v2.87L.736 5.757C.518 5.971 0 6 0 5.578V.235z" mask="url(#j)"/></g><path fill="#47BBE4" fill-rule="nonzero" d="M7.419 14.488l1.49-1.56c.18-.174.39-.156.539-.021l3.52 3.88c.182.226.12.75-.23.75h-3.06L7.524 15.12c-.23-.225-.28-.433-.106-.63M12.164 9.928c0-.204.092-.307.276-.31.203 0 .407 0 .61-.002.16-.002.293.211.403.692l.268-.333c.235-.308.47-.432.705-.44.356-.007.69.089 1.016.309l.261.175c.167.112.2.237.079.437l-.33.549c-.112.18-.29.21-.478.074a.919.919 0 0 0-.848-.237c-.192.054-.359.237-.503.489v2.547c-.002.236-.061.386-.22.39h-.956c-.183-.007-.282-.118-.288-.316l.005-4.024M31.406 14.003c-.052.131-.202.258-.332.258h-.466a.29.29 0 0 1-.288-.186l-.202-.473-1.489-3.717c-.052-.13.01-.237.14-.237h.944c.227 0 .344.066.395.228l.755 2.4.727-2.383c.057-.187.122-.245.384-.245h.944c.13 0 .192.106.14.237l-1.652 4.118z"/><path fill="#F27D31" fill-rule="nonzero" d="M21.522 17.14c-.163 0-.294-.156-.294-.349 0-.193.131-.35.294-.35.162 0 .293.157.293.35 0 .193-.131.35-.293.35m0-1.077c-.38 0-.687.326-.687.727 0 .401.308.727.687.727.378 0 .686-.326.686-.727 0-.401-.308-.727-.686-.727M14.323 17.139h-.35v-.418H14.323c.122 0 .222.094.222.21 0 .114-.1.208-.222.208zm-.186-1.092h.112c.125 0 .234.04.23.165-.007.17-.133.156-.223.156h-.105l-.177-.003-.003-.318h.166zm.575.452c.17-.057.258-.369.147-.552-.088-.116-.218-.215-.497-.277-.233-.052-.567-.037-.84.026v1.793c.403 0 .823.063 1.21-.069.196-.106.256-.29.254-.54-.019-.253-.124-.312-.274-.38zM26.834 16.502h-.278v-.455h.278a.228.228 0 0 1 0 .455m.113-.832c-.233-.052-.568-.037-.84.026v1.793h.445v-.575c.355.02.688-.037.86-.26.143-.24.142-.524.031-.707-.087-.116-.217-.215-.496-.277M33.314 17.194h-.226c-.091 0-.165-.063-.165-.14 0-.078.074-.14.165-.14h.226v.28zm-.097-1.133c-.26-.011-.452.015-.575.08l.043.346c.144-.043.267-.06.371-.053.138.01.254.05.28.204a.7.7 0 0 0-.379-.03c-.285.04-.44.184-.465.436a.427.427 0 0 0 .279.443c.31.075.623.062.938-.038l-.004-.972c0-.252-.264-.406-.488-.416zM28.537 17.194h-.227c-.09 0-.164-.063-.164-.14 0-.078.074-.14.165-.14h.226v.28zm-.097-1.133c-.26-.011-.452.015-.575.08l.043.346c.144-.043.268-.06.371-.053.138.01.254.05.28.204a.7.7 0 0 0-.378-.03c-.286.04-.44.184-.466.436a.427.427 0 0 0 .279.443c.31.075.623.062.938-.038l-.004-.972c0-.252-.264-.406-.488-.416zM37.015 16.178c0 .438.002.875.003 1.312l.43-.005v-1.03a.857.857 0 0 1 .417.037l.069-.36c-.255-.102-.561-.086-.92.046M24.528 17.07c.03.253.004.503-.08.752l.318.096c.177-.22.254-.502.231-.847h-.47zM23.78 16.932l-.198-.836-.311-.004-.225.818-.2-.815h-.453l.482 1.395h.32l.227-.761.204.758h.346l.464-1.392h-.438zM30.496 16.095h-.272c-.065 0-.105.01-.12.07l-.23.784-.234-.755c-.018-.065-.044-.103-.126-.098h-.303c-.05 0-.054.027-.03.1.138.437.297.845.491 1.206-.045.206-.191.256-.438.152l-.084.344c.05.081.21.103.482.065.222-.05.407-.302.555-.754l.373-1.02c.015-.066-.007-.098-.064-.094M18.157 16.095h-.271c-.066 0-.106.01-.12.07l-.232.784-.233-.755c-.018-.065-.044-.103-.126-.098h-.303c-.05 0-.054.027-.03.1.138.437.297.845.491 1.206-.045.206-.19.256-.437.152l-.085.344c.05.081.21.103.482.065.222-.05.407-.302.556-.754l.372-1.02c.015-.066-.006-.098-.064-.094M19.262 16.158l.004.73.009.61h.388l.001-1.08c.243-.037.39.042.393.288v.792h.42v-.792c-.015-.235-.067-.377-.137-.477-.217-.227-.656-.218-1.078-.071M16.56 16.094h-.388l-.001 1.082c-.243.036-.389-.043-.393-.289v-.792h-.42v.792c.015.235.067.378.137.477.217.227.656.218 1.078.072l-.004-.73-.009-.612zM32.047 16.884l-.013-.56v-.868l-.402.088v1.171c.002.37-.012.53.097.666.133.12.276.152.462.155l.05-.36c-.111-.03-.185-.047-.194-.292M34.74 17.168c-.112-.027-.182-.131-.19-.35v-.349h.497v-.378h-.498v-.397l-.402.079v1.045c.002.33.03.467.14.587.242.195.511.178.796.043l-.046-.329c-.087.033-.214.07-.297.05M35.746 16.621c.114-.262.39-.27.524 0h-.524zm.177-.544c-.335.05-.592.354-.592.721 0 .403.309.729.69.729a.67.67 0 0 0 .5-.229c.022-.024.018-.053 0-.079l-.119-.135c-.031-.037-.058-.054-.103-.02-.131.103-.265.132-.402.087-.08-.03-.14-.102-.176-.215l.79.007c.087 0 .131-.035.133-.13.004-.202-.043-.36-.14-.477-.141-.17-.36-.292-.581-.259z"/></g><g transform="translate(675)"><rect width="40" height="24" fill="#FFF" fill-rule="nonzero" rx="3"/><g transform="translate(6.242 18.648)"><mask id="l" fill="#fff"><use xlink:href="#k"/></mask><path fill="#605E5D" fill-rule="nonzero" d="M.062 2.612V.39h.954c.335 0 .58.065.736.194.155.13.232.335.232.616 0 .263-.07.455-.209.575-.14.121-.36.182-.664.182h-.25v.656H.062zm.802-1.605v.37h.124a.277.277 0 0 0 .175-.047.163.163 0 0 0 .06-.137.166.166 0 0 0-.062-.137.272.272 0 0 0-.173-.05H.864zm2.52.912a.345.345 0 0 0 .27-.115.439.439 0 0 0 .103-.304.446.446 0 0 0-.102-.308.343.343 0 0 0-.271-.116.344.344 0 0 0-.272.117.444.444 0 0 0-.103.307c0 .127.034.228.103.304.07.077.16.115.272.115zm1.187-.42a1.126 1.126 0 0 1-.724 1.08c-.145.058-.3.087-.463.087-.166 0-.321-.03-.465-.087a1.153 1.153 0 0 1-.635-.622 1.207 1.207 0 0 1-.085-.457c0-.165.028-.318.085-.46A1.144 1.144 0 0 1 2.918.42c.144-.057.3-.086.466-.086.167 0 .322.03.467.087a1.116 1.116 0 0 1 .634.623c.057.14.086.293.086.457zm.165.918l.254-.623c.114.08.216.139.305.176.09.036.174.055.251.055a.23.23 0 0 0 .13-.03.096.096 0 0 0 .046-.086c0-.061-.078-.108-.235-.14l-.118-.026a.702.702 0 0 1-.38-.216.573.573 0 0 1-.132-.385.74.74 0 0 1 .256-.584c.17-.15.395-.225.671-.225.128 0 .253.017.377.05.123.034.247.085.373.152l-.243.582a1.002 1.002 0 0 0-.231-.13.623.623 0 0 0-.226-.044.248.248 0 0 0-.128.027.087.087 0 0 0-.046.079c0 .062.111.118.332.165l.082.019a.629.629 0 0 1 .36.21.584.584 0 0 1 .133.386.766.766 0 0 1-.266.603c-.178.156-.408.234-.693.234-.145 0-.29-.021-.436-.062a1.958 1.958 0 0 1-.436-.187zm3.213.158h.81V.35h-.81v2.224zm1.244 0V.35h.783l.69 1.164a1.375 1.375 0 0 1-.02-.172 4.236 4.236 0 0 1-.005-.246V.35h.768v2.224h-.788L9.94 1.42a2.548 2.548 0 0 1 .024.352v.802h-.77zm3.465-.68c.18 0 .312-.036.395-.105.083-.069.124-.178.124-.326 0-.144-.04-.252-.118-.323-.08-.071-.202-.106-.366-.106h-.035v.86zm-.79.68V.35h.645c.205 0 .38.012.525.035.145.023.264.058.354.106.193.1.34.235.443.402.102.167.153.357.153.57 0 .214-.05.403-.153.568-.102.166-.25.3-.443.403a1.158 1.158 0 0 1-.357.106 3.993 3.993 0 0 1-.581.034h-.587zm3.575-.688a.347.347 0 0 0 .27-.114.441.441 0 0 0 .103-.305.448.448 0 0 0-.102-.307.344.344 0 0 0-.271-.116.344.344 0 0 0-.272.117.445.445 0 0 0-.103.306.44.44 0 0 0 .103.305c.069.076.16.114.272.114zm1.187-.42c0 .164-.029.316-.087.455a1.129 1.129 0 0 1-.637.626c-.145.057-.3.086-.463.086-.166 0-.32-.029-.465-.086a1.146 1.146 0 0 1-.636-.623 1.212 1.212 0 0 1-.085-.457c0-.165.029-.318.085-.459a1.138 1.138 0 0 1 .634-.621c.145-.058.3-.086.467-.086.167 0 .322.028.467.086a1.11 1.11 0 0 1 .634.623c.057.14.086.293.086.457zm.357 1.107V.352h.783l.69 1.164a1.458 1.458 0 0 1-.02-.172 4.503 4.503 0 0 1-.005-.246V.35h.769v2.224h-.788l-.683-1.155a2.536 2.536 0 0 1 .024.352v.802h-.77zm2.666 0V.352h1.484v.603h-.702v.214h.637v.57h-.637v.234h.72v.603h-1.502zm1.668-.248l.255-.623c.114.08.216.139.305.175.09.037.173.056.251.056.055 0 .098-.01.129-.031a.096.096 0 0 0 .047-.085c0-.061-.078-.108-.235-.14l-.118-.026a.701.701 0 0 1-.38-.216.574.574 0 0 1-.133-.386.74.74 0 0 1 .256-.583c.171-.15.395-.225.672-.225.128 0 .253.017.376.05.123.034.248.084.373.152l-.242.582a1.002 1.002 0 0 0-.232-.13.628.628 0 0 0-.225-.045.246.246 0 0 0-.129.028.087.087 0 0 0-.045.078c0 .063.11.119.332.166l.082.019a.631.631 0 0 1 .36.21.586.586 0 0 1 .132.386.766.766 0 0 1-.265.603c-.178.156-.409.233-.693.233-.145 0-.29-.02-.436-.062a1.98 1.98 0 0 1-.437-.186zm2.091.248h.812V.352h-.812v2.224zm2.015-.807h.332l-.068-.252a3.87 3.87 0 0 1-.069-.295 1.541 1.541 0 0 1-.022-.194h-.014a1.64 1.64 0 0 1-.022.194 4.23 4.23 0 0 1-.069.295l-.068.252zm-1.058.808L25.16.35h.888l.777 2.224h-.858l-.072-.28h-.601l-.069.28h-.856z" mask="url(#l)"/></g><path fill="#D57731" fill-rule="nonzero" d="M21.88 6.408l.007-2.477c.775.605 1.587 1.465 2.165 2.476h.524c-.665-1.531-2.015-2.482-2.6-2.732a2.156 2.156 0 0 0-.111-.012h-.118a6.156 6.156 0 0 0-.268 0 1.32 1.32 0 0 0-.058.007c-.764.388-2.045 1.396-2.565 2.762h.565c.48-1.05 1.27-1.8 2.04-2.443l-.007 2.419h.426zm-3.067 7.039a7.63 7.63 0 0 1-.501-2.32h-.418c.038.928.193 1.734.495 2.597l.424-.277zm3.08-1.918l-.434.274v-.708l.434-.001v.435zm5.536 2.777l-2.652.014c-.499 1.34-1.819 2.49-2.754 3.087l-.122.017a6.54 6.54 0 0 1-.37-.002l-.086-.013c-.567-.347-1.34-.873-1.755-1.467l.468-.203c.38.503.838.874 1.301 1.333l.01-1.827.43-.166.01 2.032a10.509 10.509 0 0 0 2.323-2.791l-.209-.014.988-.435 2.683-.007c-.098.181-.151.271-.265.442zm-11.682-.394h2.39l-.646.44H16.03l-.235-.357a4.034 4.034 0 0 1-.047-.083z"/><g transform="translate(6 3.137)"><mask id="n" fill="#fff"><use xlink:href="#m"/></mask><path fill="#D57731" fill-rule="nonzero" d="M0 7.79l.21-.175 18.103-.506c.385 0 .665-.072.892-.002.315.122.542.28.735.508L0 7.79zm4.764-3.835l16.972-.457c1.986.453 1.937 1.994.968 3.257l1.85-.02c.922-.039 1.426.822 2.312 1.675-2.536.28-4.842.91-7.466 1.75-3.672 1.21-7.077 2.696-10.784 4.273 1.923-2.12 3.628-3.221 5.341-4.395a89.544 89.544 0 0 1 4.13-2.358h.857c-1.008.505-2.469 1.382-3.794 2.139-1.404.802-3.247 2.043-4.509 3.3 3.233-1.337 5.98-2.5 9.171-3.51 1.787-.552 3.865-1.206 6.056-1.562-.205-.532-.662-.874-1.449-.874h-2.667c.567-.62 1.046-1.537 1.039-2.228-.005-.434-.638-.872-1.113-.87l-17.117.07.203-.19zm20.133 3.436c.148 0 .245.122.245.28 0 .158-.097.245-.245.245-.149 0-.28-.087-.28-.245s.131-.28.28-.28zm-3.684-4.098C19.971 1.664 17.916.525 15.747.525c-2.19-.039-4.374 1.102-5.557 2.79l-.51.011C10.992 1.4 13.246.105 15.747.105c2.466 0 4.676 1.268 5.987 3.177l-.52.011zM1.326 6.685l16.41-.455c.439-.017.93.318 1.008.499L1.08 6.888l.245-.203zm1.134-.9l14.192-.43c.262 0 .683.263.927.526l-15.381.096.262-.193zm.885-.684l.232-.183 11.892-.42c.354.016.781.292.906.541l-13.03.062zm8.973 8.269l-.457.23a7.336 7.336 0 0 0 3.886 1.098 7.412 7.412 0 0 0 6.883-5.033l-.529.17c-.927 2.575-3.468 4.453-6.354 4.453-1.207 0-2.45-.376-3.43-.918zM8.494 8.13l.41-.034c.17 1.577.73 2.691 1.626 3.83l-.321.27c-1.05-1.227-1.68-2.659-1.715-4.065z" mask="url(#n)"/></g></g><g fill-rule="nonzero" transform="translate(630)"><rect width="40" height="24" fill="#FFF" rx="3"/><g fill="#0060AF"><path d="M6.256 11.295c.02.004.032.008.045.008.168-.003.337 0 .505-.012.232-.016.395-.184.437-.433.03-.183-.03-.303-.177-.344a.395.395 0 0 0-.104-.017c-.165-.002-.33 0-.496-.003-.034 0-.048.012-.055.05-.03.157-.065.314-.097.472l-.058.279zm-.457 1.907c.029.002.05.006.071.006.156 0 .313.002.468-.001.061 0 .123-.006.182-.02a.569.569 0 0 0 .398-.293c.154-.295-.015-.612-.326-.612-.172 0-.345.002-.518 0-.042-.001-.061.012-.072.058-.033.153-.072.305-.108.458l-.095.404zM4 14.608c.034-.134.07-.267.102-.402l.74-3.126.095-.401h-.382l.173-.366c.194-.409.39-.818.583-1.228.018-.04.039-.055.08-.054.717.001 1.434-.004 2.15.004.323.003.63.087.882.326.192.182.293.417.321.692.05.478-.136.857-.426 1.19-.151.172-.326.311-.518.426-.016.009-.03.02-.052.034.014.01.02.016.028.02.299.132.469.378.526.72.062.374.04.737-.125 1.08a1.89 1.89 0 0 1-.912.898 1.975 1.975 0 0 1-.865.195H4.072c-.024 0-.048.003-.072.004v-.012zM34.51 15.787c.065-.19.131-.382.198-.572.069-.197.14-.392.206-.589a.183.183 0 0 0 .002-.108c-.331-.969-.665-1.937-.998-2.905l-.025-.076h.06c.268 0 .535 0 .802-.002.047 0 .068.015.082.063.182.598.366 1.196.55 1.793l.03.091c.01-.025.017-.039.021-.053.175-.607.35-1.213.523-1.82.016-.057.038-.075.092-.074.258.003.516.002.774.001.022 0 .044-.002.066-.004v.012c-.008.02-.019.039-.026.06l-1.19 3.517c-.075.221-.147.444-.22.666h-.948zM15.313 10.768a.8.8 0 0 1-.026-.005l-.623 1.605c.03.002.048.005.066.005.177 0 .353-.002.53 0 .05.002.066-.014.065-.071a90.844 90.844 0 0 1-.012-.94v-.594m1.63 3.845h-1.628v-.952c-.024-.002-.042-.005-.06-.005h-1.008c-.043-.001-.062.016-.077.057-.107.285-.217.568-.324.851-.014.037-.03.053-.069.053-.557-.002-1.114 0-1.67-.001l-.047-.003 1.854-3.99h-.418c.021-.045.035-.076.051-.107.236-.475.474-.95.709-1.425.022-.045.047-.06.094-.06H16.724l.22 5.582M12.747 11.129a1.731 1.731 0 0 0-.498-.323c-.551-.215-1.083-.18-1.569.193-.332.256-.512.622-.555 1.064-.055.563.262 1.07.82 1.213.401.103.777.024 1.142-.154.134-.065.262-.141.395-.213l-.12.281c-.201.467-.403.933-.602 1.401-.02.047-.046.07-.093.08-.183.034-.363.086-.546.109-.156.02-.315.016-.472.01a2.345 2.345 0 0 1-.997-.242c-.597-.304-.951-.817-1.08-1.515-.123-.674-.005-1.313.275-1.917.441-.951 1.131-1.589 2.07-1.896.345-.113.7-.164 1.06-.138.098.007.195.044.29.073.038.013.06.012.086-.025.032-.048.065-.117.108-.129.04-.01.096.042.143.07.284.162.567.326.85.49l.065.039-.772 1.529M21.29 14.64c-.377 0-.741.002-1.105 0-.02 0-.046-.023-.059-.043l-.578-.937a489.29 489.29 0 0 0-.393-.64l-.036-.053c-.048.074-.09.144-.138.21a.279.279 0 0 0-.053.178c.003.399.002.798.002 1.197v.084h-.939V10.53h.937v1.802l.014.007.04-.051c.375-.568.75-1.137 1.124-1.707.026-.04.053-.057.1-.057.337.003.675.002 1.022.002-.011.02-.019.034-.028.047-.422.6-.843 1.199-1.266 1.797-.034.048-.037.078-.004.13.438.685.874 1.373 1.31 2.06l.05.08M29.026 12.532c.191-.001.378.013.562-.032.237-.06.386-.215.416-.486.008-.07.01-.142.006-.212-.014-.206-.101-.36-.281-.441-.224-.1-.46-.071-.692-.072-.003 0-.006.005-.011.009v1.234zm-.941 2.105V10.53c.017-.002.031-.004.045-.004.513 0 1.025-.005 1.538.002.286.004.563.064.814.23.284.189.438.468.481.824.035.287.016.57-.086.84-.158.42-.46.664-.847.795a1.457 1.457 0 0 1-.477.074h-.528v1.345h-.94zM27.63 14.641h-.131c-.285 0-.569-.001-.853.001-.044 0-.07-.014-.093-.056-.235-.415-.472-.828-.708-1.242l-.035-.057c-.046.07-.09.132-.13.198-.01.018-.01.046-.01.07v1.08h-.872v-4.287h.871v2.387a.17.17 0 0 0 .012.007c.013-.016.026-.03.037-.046.256-.37.513-.74.768-1.111.023-.034.046-.05.086-.05.308.002.617.002.925.002h.061l-.152.206c-.267.36-.535.721-.804 1.08-.03.04-.032.066-.006.109.337.553.672 1.107 1.006 1.662.008.011.014.023.027.047M32.908 13.182c-.08.009-.153.013-.223.026-.139.026-.279.045-.413.088-.174.055-.244.17-.254.366-.01.204.065.328.23.374a.627.627 0 0 0 .534-.089c.09-.059.138-.127.129-.252-.012-.166-.003-.335-.003-.513m-1.54-.828v-.205c0-.162.002-.324-.001-.486 0-.049.017-.067.057-.077.36-.09.724-.152 1.095-.134.238.012.473.038.699.13.355.147.56.452.563.867.004.715.002 1.43.002 2.145l-.003.042h-.871v-.327c-.062.056-.109.103-.16.145-.321.268-.68.353-1.063.21-.331-.125-.509-.402-.552-.782a1.325 1.325 0 0 1 .029-.457c.066-.28.24-.458.473-.575a1.97 1.97 0 0 1 .676-.183c.186-.022.373-.042.56-.058.043-.005.047-.026.044-.063-.018-.205-.105-.316-.299-.37-.286-.082-.57-.062-.849.038-.095.034-.188.075-.282.111-.034.013-.07.017-.118.029M21.666 14.641v-4.294c.022-.002.041-.004.061-.004.25 0 .501.001.752-.001.053-.001.065.018.065.072v4.157c0 .056-.014.072-.066.071-.25-.003-.501 0-.752 0h-.06zM23.24 11.536h.063c.247 0 .494.003.741-.001.057-.001.072.016.071.077v2.254c0 .235-.002.47 0 .705 0 .055-.013.072-.065.071-.25-.002-.501-.001-.752-.001h-.059v-3.105zM23.216 11.085h.923v-.739h-.923z"/></g></g><g fill-rule="nonzero" transform="translate(585)"><rect width="40" height="24" fill="#043B7B" rx="3"/><path fill="#FFF" d="M5.044 11.377c0-.459-.008-.844-.033-1.188h.874l.041.59h.025c.197-.31.56-.68 1.236-.68.528 0 .94.295 1.113.737h.017a1.51 1.51 0 0 1 .494-.499c.222-.156.479-.238.808-.238.668 0 1.343.45 1.343 1.73v2.351h-.989v-2.204c0-.664-.23-1.058-.717-1.058-.346 0-.602.247-.709.534-.025.097-.05.22-.05.335v2.393h-.989V11.87c0-.557-.222-.95-.692-.95-.379 0-.634.295-.726.573a.864.864 0 0 0-.057.328v2.36h-.989v-2.803zM13.826 12.23c-.717-.016-1.401.14-1.401.746 0 .393.256.574.577.574.403 0 .7-.263.791-.55a.73.73 0 0 0 .033-.221v-.549zm.99.992c0 .36.016.712.057.958h-.915l-.066-.442h-.025c-.247.312-.668.532-1.186.532-.808 0-1.262-.581-1.262-1.188 0-1.008.898-1.516 2.383-1.508v-.065c0-.263-.108-.697-.817-.697-.396 0-.808.123-1.08.295l-.197-.656c.296-.18.816-.352 1.45-.352 1.286 0 1.658.812 1.658 1.68v1.443zM15.516 11.377c0-.459-.009-.844-.032-1.188h.889l.05.6h.024c.173-.313.61-.69 1.278-.69.7 0 1.426.45 1.426 1.713v2.368h-1.014v-2.253c0-.574-.215-1.009-.767-1.009-.403 0-.684.287-.79.59-.034.09-.042.214-.042.328v2.344h-1.022v-2.803zM22.533 11.853c0-.082-.009-.18-.026-.263-.09-.392-.411-.712-.873-.712-.651 0-1.014.574-1.014 1.32 0 .728.363 1.261 1.006 1.261a.893.893 0 0 0 .873-.713c.025-.09.034-.189.034-.295v-.598zm1.013-3.267v4.471c0 .41.017.853.033 1.123h-.906l-.041-.63h-.017c-.24.442-.726.72-1.31.72-.957 0-1.715-.811-1.715-2.04-.008-1.336.832-2.131 1.797-2.131.552 0 .947.23 1.129.525h.017V8.586h1.013zM24.263 14.18h1.023v-3.99h-1.023zM26.002 11.476c0-.54-.008-.927-.032-1.287h.882l.032.762h.033c.198-.565.668-.762 1.097-.762.099 0 .156-.016.238 0v.886a1.394 1.394 0 0 0-.296-.033c-.487 0-.816.311-.907.761-.016.09-.033.198-.033.312v2.065h-1.014v-2.704zM28.723 14.18h1.021v-3.99h-1.021z"/><path fill="#FFC346" d="M28.514 5.358c-.615.354-2.62 1.493-2.62 1.493-.753.309-1.33-.067-1.517-.342a.225.225 0 0 1-.022-.034l-.024-.041-.127-.207a2.699 2.699 0 0 0-.39-.495c-.483-.485-1.256-.826-2.545-.217l-2.59 1.472h-.001l-1.327.754.686.838c.29.273.832.722 1.672.344 0 0 2.317-1.335 2.326-1.338 1.982-1.082 2.96-.049 3.392.64.015.021.027.045.04.066h.002l.013.025.049.08c.21.317.543.522.938.512.219-.004.367-.075.583-.194l2.242-1.293.005-.002c2.006-1.094 3 .006 3.425.695.033.06.07.116.109.17.21.283.5.468.868.46.243-.006.516-.15.557-.177l2.688-1.543s-.275-.412-.84-1.055c-.506-.574-1.044-.315-1.471-.103-.18.088-1.478.82-1.478.82-.711.291-1.265-.027-1.482-.295a.646.646 0 0 1-.057-.08l-.05-.088a3.935 3.935 0 0 0-.285-.423 2.371 2.371 0 0 0-.205-.233 1.747 1.747 0 0 0-1.28-.545c-.36 0-.783.096-1.284.336M6.139 16.818c-.399 0-.686.284-.715.704h1.399c-.01-.422-.283-.704-.684-.704zm.674 1.448h.406c-.07.427-.512.734-1.054.734C5.45 19 5 18.513 5 17.742s.453-1.277 1.146-1.277c.68 0 1.104.469 1.104 1.221v.157H5.424v.023c0 .474.298.78.75.78.319 0 .566-.147.64-.38zm2.399-.416H7.665v-.374h1.547v.374zm2.64-.552h-.402c-.052-.265-.279-.475-.66-.475-.444 0-.746.36-.746.91 0 .565.307.91.75.91.354 0 .59-.162.66-.463h.404c-.069.485-.486.82-1.066.82-.698 0-1.165-.485-1.165-1.267 0-.765.464-1.268 1.16-1.268.63 0 1.014.397 1.066.833zm1.23 1.353c.415 0 .719-.263.719-.62v-.202l-.665.042c-.382.023-.58.16-.58.4 0 .23.205.38.526.38zm-.088.349c-.516 0-.858-.29-.858-.732 0-.427.335-.679.953-.716l.712-.041v-.208c0-.31-.208-.48-.583-.48-.294 0-.514.148-.563.383h-.394c.012-.42.429-.741.962-.741.601 0 .988.314.988.803v1.709h-.389v-.432h-.01c-.143.277-.462.455-.818.455zm1.72-1.817c0-.42.388-.716.94-.716.517 0 .908.303.925.711h-.394c-.026-.233-.234-.378-.545-.378-.314 0-.523.145-.523.362 0 .169.136.282.429.354l.387.094c.514.127.698.303.698.665 0 .425-.418.725-1.005.725-.547 0-.943-.29-.983-.723h.412c.043.254.253.39.6.39.346 0 .563-.14.563-.364 0-.176-.106-.268-.396-.342l-.446-.113c-.446-.113-.663-.332-.663-.665zm2.386 1.794V15.5h.41v1.392h.01c.158-.282.417-.427.806-.427.557 0 .896.37.896.924v1.588h-.41V17.46c0-.397-.205-.637-.609-.637-.429 0-.693.286-.693.723v1.43h-.41z"/></g><g transform="translate(540)"><rect width="40" height="24" fill="#FFF" fill-rule="nonzero" rx="3"/><g transform="translate(7 3.002)"><mask id="p" fill="#fff"><use xlink:href="#o"/></mask><path fill="#F9DB00" fill-rule="nonzero" d="M23.258 13.115c.06-.051.107-.114.157-.173a6.855 6.855 0 0 0 1.135-1.846 5.576 5.576 0 0 0-.03-4.349 6.832 6.832 0 0 0-.968-1.608c-.093-.116-.186-.233-.291-.34-.01-.022-.03-.037-.045-.055a9.486 9.486 0 0 0-1.484-1.31c-.62-.444-1.28-.818-1.97-1.138a14.346 14.346 0 0 0-2.023-.752c-.551-.16-1.11-.29-1.675-.39a17.17 17.17 0 0 0-3.787-.249 18.456 18.456 0 0 0-1.834.171 15.744 15.744 0 0 0-2.488.568c-.927.294-1.82.67-2.666 1.154-.806.46-1.55 1.004-2.21 1.665a4.5 4.5 0 0 0-.314.337l-.05.05c-.108.124-.213.251-.314.382a6.752 6.752 0 0 0-.918 1.57 5.638 5.638 0 0 0-.348 3.123c.082.455.217.893.402 1.315a6.931 6.931 0 0 0 1.036 1.656c.062.075.121.152.193.218l.011.016c.256.285.531.55.821.8.516.444 1.072.827 1.658 1.165a13.2 13.2 0 0 0 1.877.886c.645.247 1.304.445 1.975.602a17.468 17.468 0 0 0 5.437.373c.194-.018.388-.036.582-.06a16.103 16.103 0 0 0 1.85-.328 15.09 15.09 0 0 0 2.015-.625c.769-.3 1.507-.664 2.207-1.107.57-.362 1.107-.77 1.597-1.24.16-.153.319-.31.462-.481M12.56.017h.668c.008.004.016.01.024.01.125.002.25.01.376.003.096 0 .192.005.289.01a18.298 18.298 0 0 1 3.258.449c1.146.266 2.256.644 3.32 1.158a12.278 12.278 0 0 1 2.611 1.678 9.238 9.238 0 0 1 1.63 1.773c.47.675.83 1.405 1.046 2.205.108.398.186.802.201 1.217 0 .015-.001.03.01.043v.76c-.014.017-.01.037-.01.056 0 .154-.022.305-.044.456a6.499 6.499 0 0 1-.417 1.515c-.368.9-.903 1.688-1.558 2.393-.74.796-1.59 1.445-2.52 1.99-.932.546-1.916.97-2.94 1.298a17.245 17.245 0 0 1-2.946.665 18.146 18.146 0 0 1-1.579.147c-.19.01-.38.017-.57.025l-.064-.002c-.228.004-.455.004-.683 0l-.063.002-.507-.022c-.39-.017-.778-.05-1.165-.093a17.439 17.439 0 0 1-2.412-.434 15.512 15.512 0 0 1-3.307-1.235 11.83 11.83 0 0 1-2.636-1.82 8.825 8.825 0 0 1-1.49-1.77 6.96 6.96 0 0 1-.895-2.082 6.087 6.087 0 0 1-.164-1.066C.02 9.294.02 9.24 0 9.192v-.498c.02-.05.02-.102.023-.154.01-.179.03-.356.058-.533.1-.643.294-1.255.573-1.84.382-.8.894-1.503 1.502-2.137a10.627 10.627 0 0 1 1.726-1.443 13.81 13.81 0 0 1 3.007-1.52A16.942 16.942 0 0 1 9.974.265c.52-.086 1.043-.149 1.568-.19.31-.025.62-.045.93-.046.03 0 .06.006.088-.01" mask="url(#p)"/></g><g transform="translate(19.598 20.864)"><mask id="r" fill="#fff"><use xlink:href="#q"/></mask><path fill="#FDF2C4" fill-rule="nonzero" d="M.81.02v.09H0L.002.018C.022.013.043.001.065.004c.227.029.455.03.682 0C.768.003.79.015.811.02" mask="url(#r)"/></g><path fill="#FCE88A" fill-rule="nonzero" d="M20.635 3.02a.529.529 0 0 0 0 .08c-.127.046-.255-.007-.383-.019-.008 0-.016-.04-.024-.062h.407z"/><path fill="#1F1A17" fill-rule="nonzero" d="M22.275 9.506h-2.5c-.019-.001-.026.008-.026.027V10.687c-.002.026.011.034.035.032h1.555c.097 0 .083-.008.083.083v3.519c0 .015.002.03 0 .046-.004.033.007.049.042.044.015-.002.03 0 .045 0h1.536c.076 0 .076 0 .076-.082v-3.512-.045c0-.052 0-.052.054-.053h1.594c.015 0 .024-.007.024-.024v-.046-1.074c0-.08.01-.068-.069-.07h-2.449zm-6.19 2.45v2.392c0 .07-.008.062.061.063H20.55c.018 0 .028-.006.027-.027v-.045-1.068c0-.072 0-.072-.073-.072h-2.25c-.089 0-.078.007-.078-.082V9.58c0-.085.01-.073-.07-.073h-1.948c-.082 0-.073-.012-.073.072v2.378zm11.736 2.487c.295-.005.575-.007.853-.058.322-.058.63-.158.913-.326.47-.276.797-.672.967-1.2.074-.228.108-.461.117-.7.01-.267.006-.533-.041-.796a2.11 2.11 0 0 0-.874-1.397c-.41-.292-.875-.426-1.368-.473a5.57 5.57 0 0 0-.52-.017c-.287 0-.573.004-.857.055-.323.058-.63.158-.915.325-.376.22-.666.522-.858.92a2.248 2.248 0 0 0-.216.81 3.85 3.85 0 0 0 .026.946 2.11 2.11 0 0 0 .828 1.382c.416.314.893.457 1.401.508.186.019.372.014.544.02zm-12.12-.032l-.022-.058c-.665-1.597-1.33-3.194-1.993-4.791-.018-.043-.038-.057-.084-.057h-2.153c-.043 0-.063.012-.08.053-.122.302-.249.603-.374.904l-1.62 3.893c-.007.017-.02.032-.014.056h1.793c.054 0 .055 0 .073-.052l.347-.984c.027-.078.023-.063.09-.063h1.728c.076 0 .063-.009.089.065l.345.977c.02.056.02.056.081.057h1.795zm14.56-6.61c.105.106.198.223.291.34.393.492.722 1.024.968 1.608a5.576 5.576 0 0 1 .03 4.35 6.855 6.855 0 0 1-1.135 1.844c-.05.06-.097.122-.157.173-.025-.001-.05-.003-.076-.003H9.85l-.084.002c-.072-.065-.131-.143-.193-.218a6.931 6.931 0 0 1-1.036-1.656 5.816 5.816 0 0 1-.402-1.315 5.638 5.638 0 0 1 .348-3.124 6.752 6.752 0 0 1 .918-1.569c.1-.13.206-.257.315-.38.015-.018.032-.035.049-.052l.057.002h20.375l.064-.002z"/><path fill="#DA2726" fill-rule="nonzero" d="M30.26 7.801l-.063.002H9.822l-.057-.002a4.5 4.5 0 0 1 .314-.337c.66-.66 1.404-1.204 2.21-1.665.847-.484 1.74-.86 2.666-1.153a15.744 15.744 0 0 1 2.489-.567 18.456 18.456 0 0 1 1.833-.172c.448-.02.896-.018 1.343-.006a18.561 18.561 0 0 1 1.523.117c.309.038.615.084.92.138.566.1 1.125.23 1.676.39.692.2 1.368.449 2.024.752.69.32 1.349.693 1.969 1.138a9.485 9.485 0 0 1 1.484 1.31c.016.017.035.033.045.055"/><path fill="#037ABF" fill-rule="nonzero" d="M9.766 16.115l.084-.002h20.332l.077.003a6.144 6.144 0 0 1-.463.482c-.49.47-1.026.878-1.597 1.24-.7.443-1.438.806-2.207 1.107a15.09 15.09 0 0 1-2.015.625c-.354.084-.71.156-1.07.215-.259.044-.52.082-.78.113a18.62 18.62 0 0 1-1.614.119 18.658 18.658 0 0 1-2.112-.066 17.471 17.471 0 0 1-2.293-.366 15.164 15.164 0 0 1-1.975-.602 13.202 13.202 0 0 1-1.877-.886 10.787 10.787 0 0 1-1.658-1.165 8.909 8.909 0 0 1-.82-.8c-.005-.005-.008-.011-.012-.017"/><path fill="#FDFDFD" fill-rule="nonzero" d="M11.998 12.17c.165.014 1.005.008 1.052-.006-.064-.225-.498-1.433-.53-1.473l-.522 1.48m3.704 2.24h-1.795c-.06 0-.06 0-.08-.057l-.346-.977c-.026-.074-.013-.065-.089-.065h-1.729c-.066 0-.062-.015-.09.063-.114.329-.23.656-.346.984-.018.051-.019.051-.072.051H9.36c-.007-.023.007-.038.014-.055l1.62-3.893c.125-.301.252-.602.374-.904.017-.041.037-.053.08-.053h2.153c.046 0 .066.014.084.057.663 1.597 1.328 3.194 1.993 4.79l.023.059"/><path fill="#FCFDFD" fill-rule="nonzero" d="M29.143 12.035c-.002-.379-.08-.656-.251-.902-.247-.357-.584-.559-1.016-.574a1.207 1.207 0 0 0-.921.373 1.474 1.474 0 0 0-.223 1.76c.227.39.561.618 1.005.663.27.028.525-.035.754-.184.434-.282.636-.697.652-1.136m-1.322 2.408c-.172-.007-.358-.002-.544-.021-.508-.051-.985-.194-1.401-.508a2.11 2.11 0 0 1-.828-1.382 3.848 3.848 0 0 1-.026-.946c.022-.284.093-.554.216-.81.192-.398.482-.7.858-.92.285-.167.592-.267.915-.325.284-.051.57-.056.857-.055.174 0 .347 0 .52.017.493.047.958.181 1.368.473.48.342.768.81.874 1.397.047.263.05.529.04.796-.008.239-.042.472-.116.7-.17.528-.498.924-.967 1.2a2.737 2.737 0 0 1-.913.326c-.278.05-.558.053-.853.058"/><path fill="#FEFEFE" fill-rule="nonzero" d="M16.084 11.956V9.578c0-.084-.01-.072.073-.072h1.947c.081 0 .07-.012.07.073l.001 3.538c0 .089-.01.082.079.082h2.25c.072 0 .072 0 .072.071V14.384c0 .02-.01.027-.027.027H16.146c-.07-.001-.062.007-.062-.063v-2.392"/><path fill="#FCFDFD" fill-rule="nonzero" d="M22.275 9.506h2.449c.08.001.068-.01.069.069v1.12c0 .017-.009.024-.024.024H23.175c-.053.001-.053.001-.054.053v3.557c0 .082 0 .082-.076.082h-1.536c-.015 0-.03-.002-.045 0-.035.005-.046-.011-.042-.044.002-.015 0-.03 0-.046v-3.519c0-.09.014-.083-.083-.083h-1.555c-.024.002-.037-.006-.035-.033v-.039V9.58v-.046c0-.019.007-.028.026-.027h2.5z"/><path fill="#231F1C" fill-rule="nonzero" d="M11.998 12.17l.523-1.479c.031.04.465 1.248.53 1.473-.048.014-.888.02-1.053.007"/><path fill="#1F1A17" fill-rule="nonzero" d="M29.143 12.035c-.016.44-.218.854-.652 1.136a1.146 1.146 0 0 1-.754.184c-.444-.045-.778-.273-1.005-.662a1.474 1.474 0 0 1 .223-1.761c.256-.254.563-.387.921-.373.432.015.769.217 1.016.574.17.246.25.523.25.902"/></g><g fill-rule="nonzero" transform="translate(495)"><rect width="40" height="24" fill="#234E8E" rx="3"/><path fill="#F4811F" d="M19.025 18.966l-1.212-.624 1.212-.624 1.235-.635v.687h.09c2.118-.005 5.685-.336 8.763-1.254 2.461-.733 5.4-2.095 5.422-4.42.008-.836-.525-1.582-1.583-2.22-.901-.541-2.217-1.023-3.911-1.43-1.602-.386-3.792-.81-8.795-1.304.32-.007.646-.01.975-.01 4.99 0 11.14.824 13.43 3.14.627.634.94 1.359.93 2.153-.033 2.586-3.047 4.145-5.569 4.997-3.267 1.105-7.021 1.497-9.244 1.497-.142 0-.282-.002-.417-.005l-.091-.002v.689l-1.235-.635z"/><path fill="#FEFEFE" d="M21.221 7.042c-.817 0-1.597.022-2.311.063 6.214.573 15.568 1.57 15.535 4.99-.039 4.125-9.55 5.575-14.096 5.585v-.743l-1.365.702-1.366.703 1.366.703 1.366.702v-.744c.135.003.274.005.418.005 4.92 0 14.84-1.809 14.903-6.582.054-4.142-8.304-5.384-14.45-5.384m.697.184c2.488.038 4.935.276 6.957.68 1.29.258 2.419.583 3.352.967 1.021.42 1.815.91 2.36 1.461.61.617.915 1.32.905 2.09-.033 2.533-3.014 4.07-5.508 4.914-3.257 1.1-7 1.491-9.216 1.491-.141 0-.281-.001-.414-.004l-.184-.004v.633l-1.104-.568-1.058-.544 1.058-.544 1.104-.568v.63h.18c2.125-.006 5.701-.338 8.789-1.258 1.628-.485 2.918-1.075 3.833-1.752 1.087-.803 1.642-1.73 1.652-2.753.009-.87-.539-1.642-1.626-2.297-.909-.547-2.233-1.032-3.936-1.441-1.415-.34-3.288-.71-7.144-1.133"/><path fill="#F4811F" d="M18.038 16.91c-4.99 0-11.14-.825-13.43-3.14-.627-.635-.94-1.36-.93-2.154.034-2.586 3.047-4.145 5.569-4.997 3.267-1.105 7.022-1.497 9.244-1.497.142 0 .282.002.417.005l.091.002V4.44l1.236.636 1.211.623-1.212.624L19 6.958v-.687h-.09c-2.118.005-5.685.336-8.763 1.254-2.461.733-5.4 2.095-5.422 4.42-.008.836.525 1.582 1.583 2.22.901.542 2.217 1.023 3.911 1.43 1.602.386 3.792.81 8.795 1.304-.32.007-.646.01-.975.01"/><path fill="#FEFEFE" d="M18.91 4.294v.744a18.407 18.407 0 0 0-.42-.005c-4.919 0-14.84 1.81-14.902 6.582C3.534 15.757 11.892 17 18.038 17c.818 0 1.597-.022 2.311-.062-6.214-.573-15.568-1.571-15.535-4.991.04-4.125 9.55-5.575 14.096-5.585v.744l1.365-.703 1.366-.703-1.365-.703-1.366-.702zm.179.293l1.105.568 1.057.544-1.058.544-1.104.569V6.18l-.18.001c-2.124.005-5.701.337-8.788 1.257-1.629.485-2.919 1.075-3.834 1.752-1.086.804-1.642 1.73-1.652 2.753-.008.87.539 1.642 1.626 2.297.909.547 2.233 1.032 3.936 1.442 1.415.34 3.288.71 7.144 1.132-2.488-.038-4.934-.276-6.956-.68-1.291-.258-2.42-.583-3.353-.966-1.021-.42-1.815-.912-2.36-1.462-.61-.617-.915-1.32-.905-2.09.033-2.533 3.014-4.07 5.508-4.914 3.258-1.1 7-1.491 9.216-1.491.142 0 .281.001.415.004l.183.004v-.633z"/><path fill="#FEFEFE" d="M8.986 11.633h.483c.226 0 .407-.062.546-.188a.555.555 0 0 0 .198-.45c-.011-.264-.168-.396-.469-.396h-.562l-.196 1.034zM7.901 9.728h2.103c.395 0 .696.045.901.133.204.09.363.222.476.397.113.175.175.39.186.644a1.4 1.4 0 0 1-.246.88 1.485 1.485 0 0 1-.687.554c-.28.112-.673.168-1.179.168h-.634l-.291 1.623H7.086l.562-3.033-.332.002.585-1.368zM13.863 11.504h.54a.734.734 0 0 0 .403-.106.461.461 0 0 0 .205-.314c.054-.28-.08-.42-.403-.42h-.582l-.163.84zm2.397 2.623h-1.584l-.995-1.682-.326 1.682h-1.262l.587-3.034h-.38l.644-1.365h2.15c.473 0 .818.12 1.034.357.216.237.287.55.212.939a1.75 1.75 0 0 1-.275.672c-.134.194-.64.59-.995.624l1.19 1.807zM19.289 9.728l-.786 4.4h-1.341l.544-3.05h-.332l.573-1.35zM19.515 14.127l1.343-3.356h-.39l.807-1.043h1.466l.511 2.282 1.572-2.282h1.412v4.4h-1.359l-.006-2.553-1.74 2.582-.582-.03-.706-2.552-.967 2.552zM30.32 12.474l-.152-1.603h-.014l-.863 1.603h1.03zm1.69 1.653h-1.521l-.069-.72h-1.636l-.39.72h-1.672l2.163-3.356h-.426l1.098-1.043h1.654l.799 4.4z"/></g><g fill-rule="nonzero" transform="translate(450)"><rect width="40" height="24" fill="#007EC7" rx="3"/><g fill="#FFF"><path d="M31.322 7.122v6.483c-.039-.008-.072-.012-.104-.021a1.291 1.291 0 0 1-.936-1.171 9.493 9.493 0 0 1-.009-.388V9.573c-.023.015-.034.02-.043.03l-1.595 1.545c-.677.656-1.356 1.31-2.032 1.967-.15.146-.297.294-.49.386a1.29 1.29 0 0 1-1.846-1 1.535 1.535 0 0 1-.013-.193V9.426l-.155.146-1.367 1.324c-.685.664-1.37 1.328-2.057 1.99-.187.18-.371.365-.571.53a1.76 1.76 0 0 1-.768.382 1.288 1.288 0 0 1-1.537-1.058 1.83 1.83 0 0 1-.022-.29l-.001-4.591c0-.101 0-.101-.101-.101h-1.531c-.574 0-1.08-.39-1.234-.95-.007-.024-.01-.049-.017-.08h3.905V12.424c0 .037.004.074.008.11.011.097.062.164.152.196.092.034.176.011.248-.054l.648-.599 1.994-1.835 1.916-1.767 1.517-1.396.056-.045c.004.045.01.077.01.109v5.043c0 .039-.003.08.007.117.045.179.254.236.392.107.265-.248.527-.5.79-.75.838-.794 1.675-1.588 2.511-2.383l2.195-2.085c.021-.02.044-.038.08-.07zm-4.479 2.14l.413-.4a22198.965 22198.965 0 0 0 3.408-3.3 1.26 1.26 0 0 1 .904-.372 1.293 1.293 0 0 1 1.292 1.275v5.924c0 .567-.472 1.124-1.02 1.214l-.037.004c-.002-.04-.006-.075-.006-.11V6.607c0-.046.001-.094-.013-.137a.23.23 0 0 0-.342-.122.302.302 0 0 0-.049.039l-2.077 1.978-2.976 2.825-.445.422c-.02.018-.04.033-.077.062V6.512c0-.181-.113-.293-.278-.266a.273.273 0 0 0-.13.069c-.656.6-1.31 1.204-1.963 1.806l-3.414 3.144-.684.63-.066.057c-.005-.047-.01-.079-.01-.11V6.825c0-.105 0-.105.104-.105h2.935c-.014.022-.02.035-.028.043-.243.228-.48.463-.731.682a1.23 1.23 0 0 1-.857.312c-.094-.002-.188 0-.282 0-.033 0-.05.008-.05.046l.001 1.74c0 .002.003.004.01.012l.345-.333c.714-.69 1.428-1.38 2.141-2.072l1.277-1.239c.137-.133.271-.269.413-.396.23-.206.502-.312.812-.323.237-.008.471-.001.69.102.452.212.72.564.778 1.068.01.087.012.175.012.263V9.26zm-13.286 4.33v-.114l.001-6.818c0-.12-.04-.208-.149-.256-.099-.044-.188-.018-.264.055l-.705.67-2.85 2.707-2.314 2.2L6.262 13l-.051.04c-.043-.089-.091-.17-.123-.256a1.317 1.317 0 0 1 .341-1.444c.46-.44.916-.885 1.374-1.328l2.037-1.97 1.268-1.23c.456-.44.909-.885 1.37-1.32.215-.2.48-.295.774-.312a1.29 1.29 0 0 1 1.356 1.31v5.854c0 .57-.426 1.11-.972 1.237-.021.006-.044.007-.079.011zm-7-.204l6.515-6.191v6.396c-.03-.005-.056-.008-.081-.015a1.305 1.305 0 0 1-.957-1.112c-.005-.041-.003-.083-.003-.125V9.536c-.082.078-.155.145-.226.214l-2.248 2.179c-.464.45-.927.9-1.394 1.346a1.223 1.223 0 0 1-.777.34 1.262 1.262 0 0 1-.76-.182l-.068-.045zm12.301-7.16h-3.857c-.127 0-.13-.002-.092-.121.167-.542.53-.857 1.084-.95.07-.01.141-.012.212-.012h6.177c.184 0 .363.032.502.166.161.155.19.351.13.556-.032.108-.093.209-.15.308-.015.026-.06.048-.093.05-.128.006-.256.002-.385.002h-3.528zM7.133 17.996c.024.003.033.005.042.005.462 0 .924.004 1.387-.002.176-.003.347-.047.505-.135a.608.608 0 0 0 .215-.885c-.135-.193-.336-.264-.56-.27-.24-.007-.48-.002-.72-.002H7.91c.016-.067.027-.122.043-.177.031-.108.06-.218.1-.323.035-.093.104-.139.213-.137.233.004.466-.003.7-.012a.983.983 0 0 0 .414-.109.637.637 0 0 0 .338-.398c.08-.272-.021-.507-.275-.607a.906.906 0 0 0-.298-.066c-.33-.01-.659-.006-.989-.007-.144 0-.213.054-.25.194l-.698 2.632-.076.299m2.39-1.615c.198.087.373.171.517.308.176.168.27.374.285.618.04.668-.346 1.091-.853 1.309a2.357 2.357 0 0 1-.905.198c-.832.01-1.665.01-2.498.014-.02 0-.04-.004-.066-.006.006-.031.01-.056.016-.08.323-1.213.647-2.425.967-3.639.058-.22.128-.432.272-.613.196-.246.452-.383.759-.428.085-.012.173-.014.26-.015.322-.001.645-.006.967.002.359.01.705.077 1.008.287.333.23.464.558.434.957-.041.569-.43.912-.95 1.038l-.213.05M26.8 15.83c.121-.11.238-.223.362-.328.27-.227.576-.358.93-.375.256-.011.498.026.712.176.211.15.32.363.36.614.05.295-.008.58-.083.861-.172.655-.347 1.31-.518 1.964-.017.065-.042.089-.11.088-.25-.004-.5-.002-.749-.002-.026 0-.053-.003-.09-.005l.054-.208.478-1.803c.039-.147.053-.297.033-.447-.03-.225-.216-.377-.455-.394-.453-.034-.728.222-.864.584-.08.217-.133.446-.194.67-.138.51-.274 1.019-.407 1.53-.016.059-.042.075-.1.074-.253-.002-.507 0-.761 0-.025 0-.05-.003-.086-.005l.088-.34c.15-.57.303-1.14.45-1.71a.947.947 0 0 0 .023-.432c-.043-.214-.222-.355-.454-.372-.492-.036-.761.276-.88.633-.09.275-.159.558-.234.838-.117.436-.233.873-.346 1.31-.016.06-.043.08-.104.079-.254-.004-.508-.002-.762-.002-.082 0-.084-.003-.064-.082l.863-3.273c.041-.159.144-.256.296-.267.23-.017.46-.004.703-.004l-.092.368c.078-.068.146-.13.216-.187.2-.167.433-.248.689-.251.151-.002.308-.001.454.034.322.077.52.3.63.61l.026.076-.013-.021M11.804 17.265c.018-.074.032-.138.05-.202.03-.101.057-.204.096-.302.036-.092.106-.134.21-.133.352.004.705 0 1.057.003.067 0 .092-.025.092-.086-.001-.094.01-.19-.008-.281-.047-.25-.243-.411-.504-.447-.498-.068-.94.208-1.166.645-.17.33-.231.68-.153 1.046a.767.767 0 0 0 .677.606c.33.043.635-.022.918-.197.096-.06.113-.054.18.036l.286.39c.038.052.033.088-.02.127a2.04 2.04 0 0 1-.997.374c-.321.034-.64.02-.948-.086-.544-.185-.857-.574-.956-1.141-.195-1.113.567-2.256 1.656-2.493.405-.088.805-.079 1.186.104.41.196.636.534.709.981.043.264.016.524-.054.78-.057.21-.145.281-.362.282H11.893c-.027 0-.053-.004-.09-.006M20.7 16.11c-.026-.176-.097-.339-.076-.515.02-.166.128-.269.278-.309.186-.05.377-.09.57-.11.192-.022.388-.024.581-.016.288.01.568.065.818.221.262.163.396.404.433.71.036.3-.04.581-.115.865l-.476 1.803c-.01.038-.018.07-.068.07-.265-.002-.53-.001-.796-.002-.011 0-.022-.005-.043-.01l.093-.362c-.047.034-.078.059-.111.082-.229.156-.487.224-.756.27a1.186 1.186 0 0 1-.878-.178c-.214-.14-.378-.323-.431-.584a.923.923 0 0 1 .19-.767c.215-.282.503-.46.823-.593a2.66 2.66 0 0 1 1.16-.195c.157.008.171.03.106.172-.046.1-.095.2-.14.3-.019.043-.044.06-.092.066-.36.046-.695.158-.972.406-.173.154-.215.36-.117.535.08.143.21.218.366.24a1.01 1.01 0 0 0 1.128-.744c.078-.286.15-.575.212-.866.076-.363-.082-.582-.448-.642-.388-.062-.763.002-1.133.12l-.107.032M30.102 16.11c-.027-.159-.066-.307-.076-.458-.011-.17.098-.315.28-.365a3.53 3.53 0 0 1 .563-.111c.197-.021.397-.024.595-.016.3.012.59.07.846.243.243.163.365.397.4.686.036.294-.037.572-.11.851l-.479 1.817c-.013.05-.033.073-.088.072-.25-.002-.499-.002-.748 0-.059 0-.078-.014-.057-.076.03-.092.05-.186.074-.28-.01-.002-.016-.005-.018-.003-.278.224-.606.31-.952.347-.372.04-.69-.08-.955-.34-.336-.327-.356-.81-.058-1.198.24-.314.568-.5.93-.635.341-.127.695-.17 1.057-.153.152.006.167.03.104.168-.045.1-.095.2-.14.301-.02.045-.047.061-.098.068-.36.047-.693.16-.971.408-.226.2-.197.47-.045.625.13.132.297.17.473.16.281-.017.527-.12.724-.333.133-.144.207-.318.252-.507.063-.267.137-.531.193-.8.04-.198.02-.39-.169-.517a.797.797 0 0 0-.382-.12 2.559 2.559 0 0 0-1.07.144l-.075.021M16.884 17.698c.133.092.25.184.377.26.245.147.515.212.8.208a.613.613 0 0 0 .325-.092c.15-.095.236-.387.012-.525-.147-.09-.306-.163-.462-.238-.211-.101-.424-.196-.607-.347-.223-.185-.316-.42-.302-.713.027-.596.444-1.035 1.06-1.147.508-.093.99.004 1.443.25a.749.749 0 0 1 .172.134c.068.069.065.143.004.217-.106.127-.215.252-.32.38-.033.04-.056.046-.1.013a1.663 1.663 0 0 0-.598-.299 1.005 1.005 0 0 0-.475-.02c-.162.037-.275.129-.302.307-.014.09.008.172.074.226.095.077.2.146.307.204.214.114.438.21.649.33.205.116.383.273.443.514.09.358.012.689-.21.98-.218.286-.522.43-.866.486-.598.096-1.152-.037-1.661-.363a.628.628 0 0 1-.162-.156c-.055-.075-.042-.144.022-.213l.377-.396M13.924 18.819l.126-.48.413-1.563.387-1.455c.042-.161.11-.214.273-.215h.487c.027 0 .054.003.093.006l-.083.345c.114-.063.231-.14.359-.195a1.7 1.7 0 0 1 .573-.119c.085-.005.17-.011.254-.011.138 0 .193.07.16.203-.043.18-.088.358-.133.536-.032.126-.085.164-.214.17-.276.013-.542.07-.796.182a.79.79 0 0 0-.46.528c-.137.48-.276.96-.41 1.44-.052.189-.093.38-.138.571-.01.04-.021.067-.07.067-.256-.002-.512-.001-.769-.001-.013 0-.026-.005-.052-.01"/></g></g><g transform="translate(405)"><rect width="40" height="24" fill="#FFF" fill-rule="nonzero" rx="3"/><path fill="#1F489C" fill-rule="nonzero" d="M12.417 13.822h1.543c.859 0 1.756-.204 1.756-.983v-.252c0-.388-.407-.731-.798-.731v-.05c.31-.025.692-.396.692-.706v-.277c0-.58-.621-.883-1.25-.883h-1.943v3.882zm1.091-3.15h.293c.322 0 .718.031.718.327v.126c0 .252-.41.353-.692.353h-.319v-.807zm.266 2.419h-.266v-.907h.479c.336 0 .638.09.638.403v.126c0 .306-.509.378-.851.378zM24.335 13.822h1.09v-1.764c.201.139 1.204 1.764 1.33 1.764h1.331c-.067-.238-1.596-1.98-1.596-2.067 0-.079 1.332-1.592 1.49-1.815l-1.32.008-1.234 1.555V9.94h-1.091v3.882z"/><g transform="translate(3 8)"><mask id="t" fill="#fff"><use xlink:href="#s"/></mask><path fill="#1F489C" fill-rule="nonzero" d="M33.758 5.822h1.091V1.941h-1.09z" mask="url(#t)"/></g><g transform="translate(3 8)"><mask id="v" fill="#fff"><use xlink:href="#u"/></mask><path fill="#1F489C" fill-rule="nonzero" d="M12.61 5.822h1.037c.093 0 .361-.703.373-.832h1.49c.165 0 .249.832.425.832l1.132-.006-1.558-3.876h-1.303c-.096 0-.371.808-.426.933-.14.321-.262.667-.395.987-.137.326-.25.636-.387.969-.117.284-.32.714-.388.993zm2.198-3.07l.036-.005.462 1.51-1.02.002.522-1.506z" mask="url(#v)"/></g><g transform="translate(3 8)"><mask id="x" fill="#fff"><use xlink:href="#w"/></mask><path fill="#1F489C" fill-rule="nonzero" d="M17.212 5.822h1.005l-.011-2.626 1.4 2.626h1.356V1.94h-.984l-.02 2.58-1.337-2.58h-1.41z" mask="url(#x)"/></g><g transform="translate(3 8)"><mask id="z" fill="#fff"><use xlink:href="#y"/></mask><path fill="#1F489C" fill-rule="nonzero" d="M30.007 5.822h1.091V4.285h.24c.413 0 .564.3.669.6.095.271.249.668.315.937h1.117c-.003-.129-.311-.89-.376-1.055-.063-.162-.14-.351-.205-.511-.116-.283-.246-.24-.35-.375.354-.028.745-.425.745-.781v-.277c0-.648-.696-.883-1.41-.883h-1.836v3.882zm1.091-3.15h.346c.298 0 .718.09.718.353v.125c0 .36-.439.404-.825.404h-.239V2.67z" mask="url(#z)"/></g><g transform="translate(3 8)"><mask id="B" fill="#fff"><use xlink:href="#A"/></mask><path fill="#1F489C" fill-rule="nonzero" d="M26.443 5.822h1.676c.856 0 1.649-.274 1.649-1.058v-.026c0-.478-.326-.873-.771-.882v-.05a.876.876 0 0 0 .664-.832c0-.678-.522-1.034-1.223-1.034h-1.995v3.882zm1.09-3.15h.4c.345 0 .638.076.638.403 0 .288-.377.403-.692.403h-.346v-.807zm0 1.487h.267c.395 0 .877.07.877.428 0 .447-.409.504-.877.504h-.267v-.932z" mask="url(#B)"/></g><g transform="translate(3 8)"><mask id="D" fill="#fff"><use xlink:href="#C"/></mask><path fill="#1F489C" fill-rule="nonzero" d="M0 1.437v4.99c0 .697.688 1.336 1.437 1.336h5.426c.664 0 1.33-.683 1.33-1.361V1.285C8.193.62 7.496 0 6.757 0h-5.32A1.42 1.42 0 0 0 0 1.437zm6.464.15c0-.423-.26-.598-.425-.83.714 0 1.122-.075 1.315.467.115.322.042 1.253.042 1.674v3.428l-2.56-2.465c.4-.562 1.628-1.176 1.628-1.996v-.277zm-2.234.177c0-.186-.055-.436-.11-.577-.057-.15-.244-.364-.263-.43h.719c.452 0 .984.392.984.806v.226c0 .55-1.915 1.852-1.915 2.092 0 .004 1.46 1.421 1.602 1.557l.812.768c.154.147.687.647.778.775H3.91c.18-.255.372-.476.372-.907v-.126c0-.507-.398-.883-.671-1.154-.183-.181-.769-.813-.925-.913.432-.611 1.543-1.053 1.543-2.067v-.05zM.825 1.285c0-.276.36-.529.692-.529h.718c.525 0 1.01.45 1.01.933v.1c0 .799-1.355 1.526-1.755 2.092.122.174.732.76.924.939.243.228.752.667.752 1.078v.201c0 .39-.498.882-.878.882H1.41c-.266 0-.585-.28-.585-.504V1.285z" mask="url(#D)"/></g></g><g fill-rule="nonzero" transform="translate(360)"><rect width="40" height="24" fill="#FFF" rx="3"/><path fill="#21697B" d="M23.986 7.022h2.153l5.246 7.022V8.092c0-.602-.83-1.047-.83-1.047h2.691s-.706.4-.706 1.036v9.029s-1.245-.502-2.186-1.773c-.942-1.27-4.473-5.851-4.473-5.851v6.186c0 .434.74.97.74.97h-2.657s.74-.402.74-.937V8.182c0-.803-.718-1.16-.718-1.16M35.533 14.044V8.092c0-.602-.83-1.048-.83-1.048h3.15s-.706.402-.706 1.037v7.457c0 .569.673 1.003.673 1.003l-3.027.034s.74-.458.74-.925v-1.606zM15.119 7.011h4.64c1.043 0 2.243.88 2.243 2.085 0 1.638-1.267 1.86-1.267 1.86s2.22.536 2.22 2.643c0 2.106-2.422 2.909-3.229 2.909h-4.675s.808-.435.808-1.137V8.148c0-.736-.74-1.137-.74-1.137zm2.343 4.76v3.745h1.816c.706 0 2.018-.602 2.018-1.773 0-1.17-1.077-1.972-2.085-1.972h-1.75zm0-3.812v2.875h1.379c.638 0 1.547-.334 1.547-1.504s-1.346-1.371-1.816-1.371h-1.11z"/><path fill="#EE7A2A" d="M3 16.563h9.619V7H3z"/><path fill="#FEFEFE" d="M6.094 7h1.21s-.2.602 0 1.873c.203 1.27 1.212 2.206 1.212 2.206s-.337-.802 1.009-2.206c1.345-1.405 3.094-.535 3.094-.535v1.672s-1.211-1.539-2.49-.803c-.94.541-1.479 1.338-.268 3.277 1.21 1.94 2.758 1.204 2.758 1.204v.468s-.673.602-2.018.401c-.838-.125-1.512-.66-2.248-1.521l-1.177.936c.742.886 1.338 1.534 1.541 1.655.673.401 1.144.401 1.144.401l-.673.535H7.641s.135-.334-.134-.601c-.27-.268-1.121-1.383-1.121-1.383l-2.444 1.984h-.903l2.92-2.407L3 10.545V8.739s2.152 2.757 3.826 4.784l1.157-.939c-.321-.406-.711-.946-1.082-1.438C5.49 9.274 6.094 7 6.094 7"/></g><g transform="translate(315)"><rect width="40" height="24" fill="#FFF" fill-rule="nonzero" rx="3"/><g transform="translate(3 5.176)"><mask id="F" fill="#fff"><use xlink:href="#E"/></mask><path fill="#EC1C24" fill-rule="nonzero" d="M7.003 10.967c.106.333.278.34.524.242 2.249-.897 3.603-3.108 3.471-5.684C10.81 1.853 7.343-.696 3.964.354 1.16 1.226-.495 4.128.132 7.114c.25 1.188.812 2.202 1.712 3.02l.328-.231C-.439 7.39.06 3.54 2.398 1.653 4.7-.203 8.102.356 9.736 2.904c.82 1.276 1.084 2.685.727 4.178-.462 1.936-1.654 3.206-3.46 3.886" mask="url(#F)"/></g><path fill="#EC1C24" fill-rule="nonzero" d="M11.11 17.42c.025-.728-.101-.835-.747-.67a.658.658 0 0 1-.729-.25c-.19-.248-.263-.516-.066-.809a.756.756 0 0 0 .114-.277c.062-.338.042-.668-.247-.892-.36-.28-.76-.476-1.23-.413-.074.01-.165.086-.202.157-.15.289-.283.588-.431.903.186.066.31.087.407.15.188.122.375.254.534.413.049.049.038.272 0 .29-.358.17-.156.337.001.505l-.147.21h.354l-.037.08c.097.054.195.11.341.19-.032.012-.068.015-.09.035-.019.016-.02.051-.052.145.77-.275.792.483 1.126.848l.283-.332.484.249.104-.573.23.041M10.437 10.407c.258.468-.033.992-.06 1.527.433-.097.45-.135.625-.47.376-.724.796-1.415 1.56-1.817l-.203-.35.217-.191-.607-.608-.548.1c-.045.312-.013.72-.172 1.017-.167.313-.518.519-.812.792M10.186 11.767c.098-.468-.12-.698-.755-.792l-.07.35.825.442M9.635 7.852c-.283-.211-.867-.24-1.06-.082.32.497.711.01 1.06.082M9.896 8.88l-.019.11.758.158.02-.114-.759-.154"/><path fill="#EC1C24" fill-rule="nonzero" d="M8.444 12.082c.462-.13.46-.128.695.326.02.038.116.032.176.047l-.006.003.67-.639c.1.186.185.417.329.598.193.241.437.438.65.664.2.215.42.33.724.29.153-.02.318.048.546.088l-.209.233.136.568-.245-.026-.28.649-.365-.546-.331.282c-.057-.043-.089-.055-.09-.07-.041-.746-.757-.89-1.123-1.345-.047-.058-.255-.025-.36.028-.376.189-.757.376-1.101.618-.23.163-.483.383-.584.637-.279.704-.704 1.216-1.36 1.567-.379.203-.103.555 0 .798.098.226.133.629.56.49.197-.064.397-.107.564.115l-.14.04.379.5h-.326l-.056.634-.524-.25-.273.503c-.257-.476-.711-.726-.738-1.291-.01-.232-.077-.471-.366-.53-.09-.019-.167-.102-.178-.109l-.075-.38.253-.047-.535-.255.364-.07c-.012-.09-.016-.176-.035-.258-.082-.352-.022-.462.314-.562.413-.122.466-.229.338-.66-.029-.096-.045-.197-.069-.295-.023-.097-.05-.194-.08-.312-.093.007-.177.008-.259.02-.45.072-.82-.177-.877-.637-.045-.37-.037-.75-.055-1.163l.272.342-.081-.593.085-.06.128.332.11-.091-.149-.522c.176.09.384.27.465.222.33-.196.73-.342.856-.78.021-.077-.025-.198-.076-.269-.219-.3-.235-.536-.036-.828.013-.018.04-.035.04-.052 0-.27.056-.562-.025-.804-.095-.284-.112-.492.079-.656.087.097.197.176.247.284.064.141.102.304.112.46.012.19-.023.38-.028.571-.011.464.037.939-.046 1.388-.044.241-.29.457-.477.652-.274.287-.582.54-.865.817a1.075 1.075 0 0 0-.198.308c-.134.286-.061.53.186.663.235.125.46.017.628-.236.157-.236.329-.485.55-.645.46-.336.956-.616 1.437-.92l.012-.007.303-.074-.09.562.516-.327-.013.01z"/><g transform="translate(3 5.176)"><mask id="H" fill="#fff"><use xlink:href="#G"/></mask><path fill="#EC1C24" fill-rule="nonzero" d="M7.003 10.967c1.806-.68 2.998-1.95 3.46-3.886.357-1.493.092-2.902-.727-4.178C8.102.355 4.7-.204 2.398 1.653.06 3.54-.439 7.392 2.172 9.904l-.328.23C.944 9.317.382 8.303.132 7.114-.495 4.129 1.16 1.227 3.964.354c3.379-1.05 6.846 1.5 7.034 5.172.132 2.576-1.222 4.787-3.47 5.684-.247.098-.419.091-.525-.242" mask="url(#H)"/></g><path fill="#EC1C24" fill-rule="nonzero" d="M7.728 11.911l-.011.007c-.076.008-.151.018-.226.024-.032.002-.064-.003-.2-.01l.2-.38c.078-.15.164-.297.225-.455.01-.027-.084-.116-.144-.146-.031-.017-.12.022-.135.057-.02.049.007.118.012.18l.016.24c-.09-.006-.204.024-.265-.022-.314-.236-.22-.967.125-1.13.103-.047.223-.134.258-.233a.37.37 0 0 0-.078-.32c-.058-.054-.2-.011-.304-.011l.005.097h.333c-.116.16-.174.317-.263.34-.078.019-.226-.09-.282-.182-.172-.288-.197-.591.022-.889.287.258.577.505.849.772a.93.93 0 0 1 .243.39c.03.109-.018.258-.074.365-.016.03-.18-.022-.33-.045.019.07.024.199.063.21.092.029.22.038.296-.009.267-.164.307-.522.07-.791-.227-.257-.497-.471-.742-.71-.29-.282-.314-.501-.088-.832.043-.063.122-.097.152-.12l-.174-.535c.296-.054.517-.111.741-.128a.68.68 0 0 1 .379.083c.281.166.547.361.83.553.056-.15.076-.256.098-.256.2-.003.403-.01.598.028.281.053.322.287.253.52-.078.263-.247.142-.418.082-.1-.034-.278-.003-.339.072-.064.08-.076.271-.027.366.05.095.199.144.313.188.087.034.19.022.28.048.01.002.003.17-.02.177-.096.03-.212.062-.3.03-.319-.111-.628-.249-.93-.372.086.225.309.335.56.41.355.107.698.234.94.607h-.296c.565.164.364.652.44 1.073-.402-.21-.798-.352-1.116-.603-.215-.17-.317-.496-.478-.746a3.84 3.84 0 0 0-.529-.679c.166.31.392.599.484.93.175.624-.123 1.111-.56 1.519l.012-.011-.468.247M11.11 17.42l-.23-.04-.104.572-.484-.249-.283.332c-.334-.365-.356-1.123-1.126-.848.031-.094.033-.13.051-.145.023-.02.06-.023.091-.034l-.341-.192.037-.08h-.354l.147-.21c-.157-.167-.359-.335-.001-.504.038-.018.049-.241 0-.29a3.239 3.239 0 0 0-.534-.412c-.098-.064-.22-.085-.407-.151.148-.315.28-.614.431-.903.037-.071.128-.146.202-.157.47-.063.87.133 1.23.413.289.224.309.554.247.892a.756.756 0 0 1-.114.277c-.197.293-.123.561.066.809.186.242.44.323.73.25.645-.165.77-.058.746.67M10.437 10.407c.294-.273.645-.48.812-.792.16-.296.127-.705.172-1.018l.548-.1.607.609-.217.192.203.349c-.764.402-1.184 1.093-1.56 1.817-.174.335-.192.373-.624.47.026-.535.317-1.06.059-1.527"/><path fill="#EC1C24" fill-rule="nonzero" d="M8.185 11.675c.429-.185.577-.385.767-1.034.334.147.428.514.168.832-.191.234-.449.408-.677.609l.014-.01-.333.058.072-.466-.011.01zM9.315 12.455c-.11-.212-.22-.423-.343-.655.149-.104.23-.423.563-.29.207.083.285.218.17.413-.111.19-.26.356-.394.533-.002.002.004-.001.004-.001M10.186 11.767l-.826-.442.071-.35c.634.094.853.324.755.792M9.635 7.852c-.349-.073-.74.415-1.06-.082.193-.158.777-.13 1.06.082M9.896 8.88l.759.154-.02.114-.758-.157.02-.111M17.575 14.423h.458l.683 1.827h.006v-1.827h.356v2.451h-.458L17.938 15h-.007v1.874h-.356zM20.412 15.961l-.27-1.208h-.007l-.28 1.208h.557zm-.5-1.538h.48l.62 2.451h-.392l-.145-.6h-.689l-.151.6h-.393l.67-2.45zM21.381 14.753h-.56v-.33h1.486v.33h-.55v2.121h-.376z"/><g transform="translate(3 5)"><mask id="J" fill="#fff"><use xlink:href="#I"/></mask><path fill="#EC1C24" fill-rule="nonzero" d="M19.505 11.874h.375v-2.45h-.375z" mask="url(#J)"/></g><g transform="translate(3 5)"><mask id="L" fill="#fff"><use xlink:href="#K"/></mask><path fill="#EC1C24" fill-rule="nonzero" d="M21.377 10.639c0-.824-.178-.968-.402-.968-.225 0-.403.144-.403.968 0 .844.178.989.403.989.224 0 .402-.145.402-.99m-1.18.01c0-.875.237-1.273.778-1.273.54 0 .777.398.777 1.274 0 .875-.237 1.273-.777 1.273-.541 0-.778-.398-.778-1.273" mask="url(#L)"/></g><g transform="translate(3 5)"><mask id="N" fill="#fff"><use xlink:href="#M"/></mask><path fill="#EC1C24" fill-rule="nonzero" d="M22.085 9.423h.458l.682 1.827h.007V9.423h.356v2.451h-.459L22.447 10h-.006v1.874h-.356z" mask="url(#N)"/></g><g transform="translate(3 5)"><mask id="P" fill="#fff"><use xlink:href="#O"/></mask><path fill="#EC1C24" fill-rule="nonzero" d="M24.922 10.961l-.27-1.208h-.007l-.28 1.208h.557zm-.5-1.538h.48l.62 2.451h-.392l-.145-.6h-.689l-.152.6h-.392l.67-2.45z" mask="url(#P)"/></g><g transform="translate(3 5)"><mask id="R" fill="#fff"><use xlink:href="#Q"/></mask><path fill="#EC1C24" fill-rule="nonzero" d="M25.644 9.423h.375v2.122h.91v.33h-1.285z" mask="url(#R)"/></g><g transform="translate(3 5)"><mask id="T" fill="#fff"><use xlink:href="#S"/></mask><path fill="#EC1C24" fill-rule="nonzero" d="M28.688 11.58c.224 0 .347-.152.347-.433 0-.265-.152-.416-.37-.416h-.349v.848h.372zm-.075-1.124c.227 0 .346-.157.346-.387 0-.292-.168-.35-.38-.35h-.263v.737h.297zm-.673-1.033h.762c.349 0 .632.161.632.594 0 .299-.112.48-.346.556v.007c.257.048.422.21.422.625 0 .408-.283.67-.725.67h-.745V9.423z" mask="url(#T)"/></g><g transform="translate(3 5)"><mask id="V" fill="#fff"><use xlink:href="#U"/></mask><path fill="#EC1C24" fill-rule="nonzero" d="M30.656 10.961l-.27-1.208h-.007l-.28 1.208h.557zm-.501-1.538h.48l.62 2.451h-.392l-.145-.6h-.689l-.151.6h-.392l.669-2.45z" mask="url(#V)"/></g><g transform="translate(3 5)"><mask id="X" fill="#fff"><use xlink:href="#W"/></mask><path fill="#EC1C24" fill-rule="nonzero" d="M31.42 9.423h.458l.682 1.827h.007V9.423h.356v2.451h-.458L31.783 10h-.007v1.874h-.356z" mask="url(#X)"/></g><g transform="translate(3 5)"><mask id="Z" fill="#fff"><use xlink:href="#Y"/></mask><path fill="#EC1C24" fill-rule="nonzero" d="M33.311 9.423h.376v1.068h.007l.712-1.068h.411l-.678 1.034.751 1.417h-.425l-.57-1.102-.208.31v.792h-.376z" mask="url(#Z)"/></g><g transform="translate(3 5)"><mask id="ab" fill="#fff"><use xlink:href="#aa"/></mask><path fill="#EC1C24" fill-rule="nonzero" d="M14.575 2.364h1.357l1.761 3.256h.015V2.364h1.243v5.283h-1.357l-1.762-3.292h-.014v3.292h-1.243z" mask="url(#ab)"/></g><g transform="translate(3 5)"><mask id="ad" fill="#fff"><use xlink:href="#ac"/></mask><path fill="#EC1C24" fill-rule="nonzero" d="M22.161 6.575c.853 0 1.18-.785 1.18-1.569 0-.784-.327-1.569-1.18-1.569-.852 0-1.179.785-1.179 1.569 0 .784.327 1.569 1.18 1.569m0-4.322c1.598 0 2.5 1.221 2.5 2.753s-.902 2.753-2.5 2.753c-1.599 0-2.501-1.221-2.501-2.753s.902-2.753 2.5-2.753" mask="url(#ad)"/></g><g transform="translate(3 5)"><mask id="af" fill="#fff"><use xlink:href="#ae"/></mask><path fill="#EC1C24" fill-rule="nonzero" d="M26.7 6.545h1.059c.419 0 .71-.155.71-.592 0-.466-.313-.622-.71-.622H26.7v1.214zm0-2.101h1.023c.227 0 .54-.126.54-.504 0-.384-.263-.51-.54-.51H26.7v1.014zm-1.321-2.08h2.373c.873-.015 1.832.222 1.832 1.325 0 .473-.27.858-.667 1.065.54.163.873.652.873 1.25 0 1.259-.888 1.643-1.975 1.643H25.38V2.364z" mask="url(#af)"/></g><g transform="translate(3 5)"><mask id="ah" fill="#fff"><use xlink:href="#ag"/></mask><path fill="#EC1C24" fill-rule="nonzero" d="M34.89 5.465c0 1.531-.675 2.294-2.209 2.294s-2.21-.763-2.21-2.294v-3.1h1.322v3.181c0 .68.241 1.029.888 1.029.646 0 .888-.348.888-1.029V2.364h1.321v3.1z" mask="url(#ah)"/></g></g><g transform="translate(270)"><rect width="40" height="24" fill="#FFF" fill-rule="nonzero" rx="3"/><path fill="#184A94" fill-rule="nonzero" d="M19.566 11.32l.048.004c.303 0 .605.002.908-.001.05 0 .101-.012.148-.028a.64.64 0 0 0 .397-.722c-.046-.19-.195-.32-.379-.323-.277-.003-.554 0-.832-.001-.03 0-.043.01-.05.04-.052.212-.11.422-.16.633-.03.13-.052.26-.08.397m-.694 2.686l.038.003h.98c.04 0 .081-.004.12-.012a.805.805 0 0 0 .596-.656c.03-.242-.103-.469-.421-.461-.323.008-.647.003-.97 0-.049 0-.067.016-.078.06-.047.2-.098.397-.148.596l-.117.47m3.204-2.026c.108.122.216.237.314.358.233.286.412.6.495.96a1.7 1.7 0 0 1-.192 1.256c-.216.382-.528.676-.895.917a3.654 3.654 0 0 1-1.284.53c-.197.04-.397.057-.598.057H15.738l1.527-5.567h-.625l.17-.32 1.109-2.076c.017-.032.036-.043.073-.044.616-.003 1.232-.008 1.848-.013.416-.002.832-.015 1.248-.003.53.016 1.043.115 1.519.355.353.177.648.419.843.763.161.286.218.593.178.918-.051.412-.242.761-.509 1.076a3.715 3.715 0 0 1-.974.792l-.07.041"/><g transform="translate(28.928 8.149)"><mask id="aj" fill="#fff"><use xlink:href="#ai"/></mask><path fill="#184A94" fill-rule="nonzero" d="M5.277 4.76V2.898l-.01-.001-.815 1.865h.825zM3.051 2.352h-.717l.15-.255L3.7.037C3.715.011 3.73 0 3.763 0l3.95.001h.039c.004.051.01.1.012.149l.022.594.039.96.021.56.05 1.249.022.594.039.96.021.585.04.966.02.53.032.857v.053H5.283V6.697l-.054-.003-1.579-.001c-.035 0-.05.013-.062.042-.18.416-.364.83-.544 1.247-.02.045-.042.06-.092.06C1.989 8.04 1.026 8.04.063 8.04h-.06L3.05 2.35z" mask="url(#aj)"/></g><path fill="#184A94" fill-rule="nonzero" d="M29.58 8.081c.262.102 1.866.88 1.904.925L30.13 11.23l-.05-.034a2.848 2.848 0 0 0-1.203-.503 3.065 3.065 0 0 0-.888-.027c-.477.056-.922.2-1.316.474-.394.275-.688.625-.786 1.097-.099.472-.036.922.28 1.312.193.236.451.38.741.473.318.102.646.132.98.12a3.693 3.693 0 0 0 1.38-.31c.138-.061.268-.138.4-.206l-.13.292c-.337.762-.675 1.525-1.011 2.288a.139.139 0 0 1-.081.08c-.251.102-.512.17-.782.192-.258.02-.516.035-.774.04a3.94 3.94 0 0 1-1.574-.3c-.548-.225-1.043-.531-1.434-.977a2.75 2.75 0 0 1-.58-1.127 3.697 3.697 0 0 1-.118-1.117c.022-.54.13-1.064.338-1.565.5-1.207 1.364-2.078 2.57-2.627.416-.189.853-.318 1.302-.408a6.71 6.71 0 0 1 .967-.129c.265-.013.53-.016.796-.018.087 0 .175.014.262.025.03.004.046-.004.06-.03.031-.055.065-.108.1-.165"/><g transform="translate(4 7.008)"><mask id="al" fill="#fff"><use xlink:href="#ak"/></mask><path fill="#184A94" fill-rule="nonzero" d="M5.218 9.781c.224-.007.383-.008.541-.018.214-.014.429-.024.64-.054.3-.042.6-.093.897-.155a9.469 9.469 0 0 0 1.885-.618.111.111 0 0 0 .052-.054c.2-.469.37-.948.507-1.438a9.85 9.85 0 0 0 .306-1.536c.038-.332.063-.664.06-.998-.002-.153-.002-.307-.012-.46-.013-.211-.023-.423-.054-.631a12.27 12.27 0 0 0-.16-.876 8.762 8.762 0 0 0-.641-1.83.112.112 0 0 0-.055-.051C8.209.682 7.207.396 6.16.285a13.514 13.514 0 0 0-.98-.067 7.078 7.078 0 0 0-1.24.067 14.13 14.13 0 0 0-.96.164 9.432 9.432 0 0 0-1.827.605.132.132 0 0 0-.064.063C.7 2.045.412 2.999.292 3.998a9.732 9.732 0 0 0-.068.794c-.015.418-.01.836.048 1.251.043.302.086.604.149.902.141.664.369 1.301.656 1.918.017.037.04.06.08.076.412.16.83.303 1.256.423.666.188 1.343.32 2.034.379.278.023.557.03.77.04M5.045.002c.245.01.49.013.734.031.389.029.775.081 1.158.153a12.563 12.563 0 0 1 2.411.713c.02.009.042.029.052.049a9.44 9.44 0 0 1 .74 2.15c.068.322.116.648.147.977.03.333.048.666.036 1-.01.273-.032.547-.059.82a9.403 9.403 0 0 1-.326 1.646A12.223 12.223 0 0 1 9.4 9.043a.106.106 0 0 1-.05.05 9.922 9.922 0 0 1-2.105.69 13.79 13.79 0 0 1-.913.144 7.59 7.59 0 0 1-1.296.057 12.717 12.717 0 0 1-.984-.076C2.988 9.784 1.97 9.49.982 9.095a.113.113 0 0 1-.056-.051 9.098 9.098 0 0 1-.86-2.882 7.619 7.619 0 0 1-.062-1.28c.012-.391.048-.78.108-1.167.109-.705.291-1.39.537-2.06.085-.234.18-.465.274-.697a.124.124 0 0 1 .059-.06A9.915 9.915 0 0 1 3.059.215c.296-.06.597-.103.897-.144.36-.05.724-.065 1.088-.069" mask="url(#al)"/></g><path fill="#184A94" fill-rule="nonzero" d="M9.239 14.592h-.281v-.06c0-.48.004-.96-.003-1.439a4.546 4.546 0 0 0-.16-1.223c-.12-.408-.355-.744-.655-1.044a5.849 5.849 0 0 1-.404-.444 1.262 1.262 0 0 1-.273-.812c-.003-.46.16-.852.492-1.176.261-.255.58-.41.945-.459.462-.062.872.077 1.23.36.323.253.518.585.586.983.08.474-.036.897-.373 1.255-.158.168-.32.332-.475.503-.263.289-.42.63-.508 1.005a3.64 3.64 0 0 0-.102.763c-.01.574-.013 1.147-.02 1.72v.068"/><path fill="#184A94" fill-rule="nonzero" d="M9.562 14.592h-.198v-.056c0-.433-.005-.867.001-1.3.006-.43.036-.859.148-1.28.082-.308.238-.576.434-.826.21-.269.455-.501.761-.666.193-.104.399-.167.619-.168.321-.003.608.098.847.31.298.266.438.6.436.992-.001.253-.06.487-.233.684-.133.15-.301.257-.489.327-.264.1-.532.188-.8.278a3.726 3.726 0 0 0-.75.32c-.308.186-.556.426-.689.763-.067.17-.082.349-.087.53v.092M8.831 14.59c-.01.002-.017.004-.023.004h-.164c-.004-.067-.009-.132-.011-.197a1.269 1.269 0 0 0-.139-.552 1.652 1.652 0 0 0-.639-.641c-.29-.173-.61-.271-.928-.377-.215-.071-.43-.146-.64-.229a1.227 1.227 0 0 1-.431-.282.94.94 0 0 1-.26-.592c-.025-.25.01-.491.124-.717.202-.402.532-.642.988-.702.317-.042.606.047.872.21.384.236.667.564.897.941.157.259.232.543.282.835.063.359.076.722.075 1.085v1.16l-.003.055"/><path fill="#184A94" fill-rule="nonzero" d="M5.744 12.376c.25.266.58.374.913.477.305.094.613.182.903.317.26.121.499.271.685.49.154.182.248.388.272.623.01.102.015.203.022.309h-.215c-.007-.048-.01-.097-.021-.145-.05-.202-.196-.304-.392-.347a1.794 1.794 0 0 0-.56-.016c-.274.026-.549.052-.824.022a1.398 1.398 0 0 1-.603-.184.744.744 0 0 1-.356-.519c-.062-.353.017-.687.164-1.01l.012-.017M12.46 12.38c.074.143.12.29.153.442.04.19.055.38.02.57-.06.33-.27.53-.585.635a2.203 2.203 0 0 1-.856.084c-.19-.013-.38-.033-.57-.04a1.074 1.074 0 0 0-.448.065.434.434 0 0 0-.288.38l-.01.076H9.66c.01-.13.013-.257.034-.381.063-.373.29-.64.598-.848.267-.18.565-.294.87-.392.242-.078.485-.153.725-.237.21-.073.4-.182.555-.344.003-.003.009-.005.018-.01M10.022 15.726c.04-.007.077-.008.109-.02a.095.095 0 0 0 .052-.049c.04-.113-.022-.188-.143-.18-.032.002-.045.013-.041.045l.023.204m.041.385c.045-.008.085-.012.122-.024a.086.086 0 0 0 .048-.046c.043-.121-.02-.201-.15-.198-.039.002-.049.017-.044.051l.024.217m.157-.348c.019.007.029.012.04.014.097.017.138.054.152.15a.61.61 0 0 1 .002.143c-.008.077-.062.117-.133.13-.093.018-.187.028-.28.04-.03.005-.06.006-.098.01-.007-.05-.015-.099-.02-.149l-.072-.659c-.007-.065-.006-.065.06-.07.083-.007.167-.018.251-.023a.365.365 0 0 1 .125.011.14.14 0 0 1 .076.058.309.309 0 0 1 .029.244c-.018.06-.071.08-.132.101M7.479 15.358l-.054.254c.13.04.174.022.2-.075.031-.118.006-.15-.146-.179m.138.359c.115.073.127.102.098.234a3.277 3.277 0 0 0-.033.174c-.005.032-.02.04-.052.034-.129-.026-.129-.025-.105-.153.009-.044.02-.087.028-.13.014-.075-.07-.15-.144-.13-.009.003-.017.018-.02.029l-.06.27c-.004.016-.01.03-.014.048l-.169-.035.188-.865c.13.034.255.062.376.1.076.024.113.086.104.163a.774.774 0 0 1-.04.167c-.023.068-.083.09-.157.094M7.03 15.408l-.164-.05c.004-.027.01-.05.013-.075.006-.046-.011-.08-.057-.098-.047-.017-.086-.006-.115.035a.16.16 0 0 0-.024.043c-.044.144-.09.286-.128.431-.02.08.064.147.146.124a.034.034 0 0 0 .02-.018c.02-.058.037-.116.056-.177l-.079-.03.037-.115.25.075-.132.42a1.001 1.001 0 0 1-.369-.084c-.088-.046-.124-.125-.102-.213a4.03 4.03 0 0 1 .15-.49c.046-.118.137-.153.267-.132a.561.561 0 0 1 .111.03c.126.05.17.141.134.271l-.014.053M8.417 15.359l.171.015-.012.147c-.02.173-.038.347-.06.52-.015.12-.096.188-.22.19a.65.65 0 0 1-.135-.01c-.126-.025-.197-.112-.187-.238.013-.168.035-.335.053-.502l.018-.16c.056.005.11.01.172.014l-.02.206c-.016.155-.034.31-.046.467-.006.07.02.094.087.102.06.007.094-.014.104-.081.016-.104.025-.21.036-.314l.04-.356M11.777 15.612l-.185-.352-.013.005.046.391.152-.044m.312.236l-.161.048-.093-.172c-.059.018-.117.033-.173.053-.01.003-.018.022-.018.034.002.044.01.089.011.133 0 .013-.01.034-.021.038-.042.017-.086.028-.134.042l-.024-.292-.04-.513c0-.011.001-.023-.001-.034-.011-.047.011-.068.056-.078.047-.01.093-.026.142-.04l.456.781M8.984 15.792c.046-.005.086-.005.124-.015.02-.005.043-.027.047-.045a.407.407 0 0 0 .011-.132c-.007-.067-.1-.114-.164-.089-.009.004-.017.02-.017.03-.002.08-.001.16-.001.251m-.008.466h-.18l.015-.874h.12c.086.005.173.008.258.019.08.01.135.061.145.138a.81.81 0 0 1-.005.225c-.014.088-.066.127-.156.137-.05.005-.1.01-.151.01-.036-.001-.047.012-.047.045v.3M10.953 15.515c-.01-.03-.018-.06-.03-.086-.015-.036-.04-.063-.084-.058-.045.005-.081.041-.078.089.005.067.017.134.03.2.016.079.035.157.054.236a.331.331 0 0 0 .026.064c.02.04.05.064.097.054.05-.01.069-.046.069-.09 0-.033-.008-.066-.013-.106.054-.01.109-.022.176-.036.003.066.009.124.007.182a.145.145 0 0 1-.08.125.44.44 0 0 1-.284.05.166.166 0 0 1-.139-.123 5.477 5.477 0 0 1-.1-.402.568.568 0 0 1-.01-.19.185.185 0 0 1 .066-.11.365.365 0 0 1 .282-.067c.102.014.176.121.17.235l-.16.033"/></g><g fill-rule="nonzero" transform="translate(225)"><rect width="40" height="24" fill="#FFF" rx="3"/><path fill="#003E79" d="M3.047 13.833c0-.492-.009-.905-.035-1.273h.928l.044.633h.026c.21-.334.596-.73 1.314-.73.56 0 .998.317 1.182.79h.018a1.61 1.61 0 0 1 .525-.535c.236-.167.509-.255.858-.255.71 0 1.428.483 1.428 1.854v2.519H8.284v-2.362c0-.71-.245-1.133-.762-1.133-.368 0-.64.264-.753.571a1.541 1.541 0 0 0-.053.36v2.564h-1.05v-2.477c0-.596-.237-1.018-.737-1.018-.402 0-.673.316-.77.615a.933.933 0 0 0-.062.35v2.53h-1.05v-3.003zM12.378 14.747c-.763-.018-1.489.149-1.489.798 0 .422.272.615.613.615a.874.874 0 0 0 .84-.589.788.788 0 0 0 .036-.236v-.588zm1.051 1.062c0 .386.017.763.06 1.027h-.971l-.07-.474h-.027c-.263.334-.71.57-1.26.57-.859 0-1.34-.622-1.34-1.273 0-1.08.953-1.624 2.53-1.615v-.07c0-.281-.114-.747-.867-.747-.42 0-.858.132-1.147.316l-.21-.702c.315-.194.867-.378 1.54-.378 1.368 0 1.762.87 1.762 1.8v1.546zM14.173 13.833c0-.492-.009-.905-.034-1.273h.945l.052.642h.027c.184-.335.648-.74 1.357-.74.745 0 1.515.484 1.515 1.837v2.537h-1.077v-2.414c0-.615-.228-1.08-.814-1.08-.43 0-.728.307-.841.632a1.105 1.105 0 0 0-.044.35v2.512h-1.086v-3.003zM21.628 14.342c0-.087-.008-.193-.026-.281-.097-.42-.438-.763-.928-.763-.692 0-1.078.614-1.078 1.413 0 .781.386 1.352 1.07 1.352a.95.95 0 0 0 .927-.764 1.19 1.19 0 0 0 .035-.316v-.641zm1.077-3.5v4.79c0 .44.018.914.035 1.204h-.963l-.043-.676h-.018c-.254.474-.771.772-1.393.772-1.016 0-1.82-.869-1.82-2.185-.01-1.432.883-2.284 1.908-2.284.586 0 1.007.246 1.2.563h.017v-2.184h1.077zM23.467 16.836h1.086V12.56h-1.086zM25.315 13.939c0-.58-.01-.993-.035-1.38h.937l.035.817h.035c.21-.605.71-.816 1.166-.816.104 0 .165-.018.252 0v.949a1.469 1.469 0 0 0-.314-.036c-.517 0-.868.334-.964.816a1.93 1.93 0 0 0-.035.335v2.212h-1.077v-2.897zM28.205 16.836h1.086V12.56h-1.086z"/><path fill="#FFC346" d="M27.983 7.383c-.653.38-2.784 1.6-2.784 1.6-.8.331-1.412-.072-1.61-.367a.24.24 0 0 1-.024-.035l-.026-.045-.135-.221a2.884 2.884 0 0 0-.414-.53c-.513-.52-1.335-.886-2.704-.233-.828.473-2.753 1.577-2.753 1.577l-1.41.808.73.897c.306.294.883.774 1.775.369 0 0 2.463-1.43 2.472-1.434 2.105-1.158 3.145-.051 3.603.686.016.023.03.048.044.07v.002l.015.026.052.085c.223.34.577.56.997.55.232-.005.39-.081.62-.209l2.382-1.385c.001-.001.002-.002.005-.002 2.131-1.173 3.187.006 3.639.744.035.064.075.125.115.182.224.303.532.502.923.493.259-.006.548-.161.591-.19l2.857-1.652s-.292-.442-.893-1.131c-.537-.615-1.11-.337-1.563-.11-.191.094-1.57.878-1.57.878-.756.312-1.344-.029-1.575-.316a.693.693 0 0 1-.06-.086l-.054-.093a4.218 4.218 0 0 0-.303-.454 2.534 2.534 0 0 0-.217-.25c-.318-.321-.752-.583-1.36-.583-.382 0-.832.103-1.365.36"/></g><g fill-rule="nonzero" transform="translate(135)"><rect width="40" height="24" fill="#FFF" rx="3"/><path fill="url(#am)" d="M2.656 0C1.272 0 .006 1.25.006 2.65v6.855c.253.159 1.473.551 1.965.585 1.074.076 1.741-.279 1.844-1.175L3.81 5.587h2.378V8.84c-.125 1.863-1.76 2.241-4.246 2.116a11.579 11.579 0 0 1-1.937-.307l-.001 5.754h4.138c1.13 0 2.6-1.055 2.6-2.66V0H2.655z" transform="translate(9 4)"/><path fill="url(#an)" d="M10.249 0c-1.384 0-2.65 1.25-2.65 2.65v3.626c.83-.649 2.17-.967 3.873-.836.97.075 1.687.21 2.078.326v1.15c-.431-.214-1.281-.534-1.99-.585-1.608-.116-2.451.637-2.451 1.855 0 1.095.651 2.032 2.443 1.907.591-.04 1.575-.385 1.993-.584l.005 1.116c-.36.114-1.48.358-2.536.366-1.587.014-2.707-.324-3.416-.87l-.001 6.28h4.138c1.13 0 2.6-1.054 2.6-2.66V0h-4.086z" transform="translate(9 4)"/><path fill="url(#ao)" d="M16.482 8.534c.179-.005 1.167.005 1.62 0a.711.711 0 0 1 .709.715c0 .47-.396.74-.711.74l-1.62-.006.002-1.45zM17.97 6.39c.332-.008.645.273.645.689a.655.655 0 0 1-.613.646l-1.53-.01.005-1.32c.183-.016 1.026.006 1.493-.005zM17.807 0h4.085v13.742c0 1.605-1.47 2.66-2.599 2.66h-4.138V10.83l4.308-.004c.573 0 1.645-.289 1.645-1.332 0-1.01-.992-1.344-1.564-1.344v-.022c.98-.187 1.251-.766 1.251-1.276 0-.952-.921-1.287-1.704-1.287h-3.934V2.65c0-1.4 1.265-2.65 2.65-2.65z" transform="translate(9 4)"/></g><g fill-rule="nonzero" transform="translate(180)"><rect width="40" height="24" fill="url(#ap)" rx="3"/><g fill="#FFF"><path d="M0 11.232h1.92l.434-.991h.97l.431.991h3.779v-.758l.337.761h1.962l.337-.772v.77h9.392l-.005-1.628h.182c.127.004.164.015.164.215v1.412h4.858v-.379c.391.2 1 .38 1.802.38h2.044l.437-.992h.97l.427.991h3.938v-.942l.596.942h3.156V5.008h-3.123v.735l-.437-.735h-3.205v.735l-.401-.735h-4.329c-.724 0-1.361.096-1.875.363v-.363h-2.988v.363c-.327-.276-.773-.363-1.269-.363H9.591L8.86 6.615l-.752-1.607H4.67v.735l-.377-.735H1.36L0 7.968v3.264zm37.129-.876h-1.593l-2.13-3.35v3.35h-2.29l-.437-.996h-2.335l-.425.996h-1.315c-.547 0-1.238-.115-1.63-.494-.395-.38-.6-.892-.6-1.704 0-.662.122-1.267.605-1.745.364-.356.933-.52 1.707-.52h1.089v.956h-1.066c-.41 0-.642.058-.865.264-.191.188-.323.543-.323 1.011 0 .478.1.823.31 1.048.172.177.487.23.783.23h.504l1.585-3.51h1.684l1.903 4.222V5.893h1.712L35.977 9V5.893h1.152v4.463zm-14.453 0h1.147V5.893h-1.147v4.463zm-.652-3.261c0 .711-.5 1.079-.792 1.19.246.088.456.245.556.375.159.222.186.42.186.819v.877H20.84l-.004-.563c0-.269.027-.655-.178-.87-.164-.157-.414-.19-.819-.19h-1.207v1.623H17.51V5.892h2.585c.574 0 .998.015 1.361.214.356.2.569.49.569.989zm-5.295 3.26h-3.755V5.893h3.755v.93H14.1v.804h2.567v.915H14.1v.891h2.63v.924zm-4.592 0h-1.153L10.98 6.86l-1.63 3.496h-.987L6.73 6.857v3.499H4.443L4.01 9.36H1.67l-.437.996H.014l2.012-4.464h1.67l1.912 4.226V5.892h1.835l1.47 3.028 1.352-3.028h1.872v4.464zM30.295 8.43l-.777-1.78-.774 1.78h1.551zm-9.741-.709c-.155.09-.337.092-.556.092h-1.366v-.991h1.384c.196 0 .4.008.534.08.145.066.236.204.236.395 0 .195-.086.352-.232.424zM3.605 8.43l-.77-1.78-.764 1.78h1.534zM21.788 15.045c0 1.24-.975 1.496-1.958 1.496h-1.402v1.497h-2.185l-1.384-1.477-1.439 1.477H8.968v-4.464h4.52l1.384 1.463 1.43-1.463h3.592c.892 0 1.894.235 1.894 1.47zm-8.937 2.063h-2.763v-.888h2.467v-.91h-2.467v-.812h2.818l1.23 1.3-1.285 1.31zm4.457.524l-1.726-1.818 1.726-1.76v3.578zm2.572-1.998h-1.452v-1.136h1.466c.405 0 .687.157.687.547 0 .386-.269.59-.7.59zm7.584-2.06h3.752v.924h-2.632v.811h2.568v.91h-2.568v.889l2.632.004v.926h-3.752v-4.464zm-1.42 2.39c.25.088.455.245.551.375.159.217.182.42.186.814v.885h-1.128v-.558c0-.269.027-.666-.182-.874-.164-.16-.414-.198-.825-.198h-1.2v1.63h-1.13v-4.464h2.595c.569 0 .983.024 1.352.211.355.203.578.482.578.991 0 .713-.5 1.076-.797 1.188zm-.678-.556c-.15.085-.337.092-.555.092h-1.366v-1.002h1.384c.2 0 .4.004.537.08.145.072.232.21.232.402a.475.475 0 0 1-.232.428zm10.142.276c.22.215.337.486.337.946 0 .96-.632 1.408-1.766 1.408h-2.19v-.957h2.181c.213 0 .364-.027.46-.11a.387.387 0 0 0-.005-.587c-.086-.068-.205-.099-.4-.099-1.052-.034-2.368.031-2.368-1.382 0-.647.429-1.329 1.607-1.329h2.254v.95h-2.062c-.205 0-.338.008-.451.081-.123.073-.169.18-.169.321 0 .169.105.283.246.333.119.04.246.05.438.05l.605.016c.61.014 1.029.114 1.283.359zm4.484 1.783c-.273.38-.805.571-1.525.571h-2.17v-.957h2.161c.215 0 .365-.027.455-.11a.383.383 0 0 0 .133-.291.36.36 0 0 0-.137-.296c-.082-.068-.2-.099-.396-.099-1.056-.034-2.373.031-2.373-1.382 0-.647.434-1.329 1.613-1.329h2.24v-.888h-2.081c-.628 0-1.084.143-1.407.365v-.365h-3.077c-.492 0-1.07.116-1.343.365v-.365H26.59v.365c-.437-.3-1.175-.365-1.515-.365H21.45v.365c-.346-.318-1.115-.365-1.584-.365H15.81l-.928.954-.87-.954H7.953v6.23h5.945l.957-.97.9.97 3.665.002v-1.465h.36c.487.007 1.06-.012 1.566-.219v1.681h3.023v-1.624h.146c.186 0 .204.008.204.184v1.44h9.182c.584 0 1.193-.142 1.53-.399v.399h2.913c.606 0 1.198-.08 1.648-.287v-1.16zm0-2.943h-2.048c-.205 0-.34.008-.455.08-.119.073-.165.18-.165.322 0 .169.1.283.246.333.119.039.246.05.433.05l.61.016c.614.014 1.025.114 1.275.359.046.034.073.072.104.11v-1.27z"/></g></g><g transform="translate(90)"><rect width="40" height="24" fill="#FFF" fill-rule="nonzero" rx="3"/><g transform="translate(9 5.444)"><mask id="ar" fill="#fff"><use xlink:href="#aq"/></mask><path fill="#E41B24" fill-rule="nonzero" d="M8.636 6.975a6.952 6.952 0 0 1 2.67-5.48A6.97 6.97 0 0 0 6.986.005C3.128.005 0 3.125 0 6.975c0 3.85 3.128 6.97 6.987 6.97 1.63 0 3.13-.557 4.318-1.49a6.95 6.95 0 0 1-2.669-5.48" mask="url(#ar)"/></g><g transform="translate(20.275 5.444)"><mask id="at" fill="#fff"><use xlink:href="#as"/></mask><path fill="#F89E1C" fill-rule="nonzero" d="M11.118 11.294v-.271h-.07l-.082.187-.082-.187h-.07v.27h.05v-.204l.076.177h.051l.077-.177v.205h.05zm-.449 0v-.225h.091v-.046h-.231v.046h.09v.225h.05zm.667-4.32c0 3.85-3.128 6.97-6.987 6.97-1.63 0-3.13-.557-4.318-1.49A6.949 6.949 0 0 0 2.7 6.974 6.951 6.951 0 0 0 .03 1.495 6.971 6.971 0 0 1 4.35.005c3.859 0 6.987 3.12 6.987 6.97z" mask="url(#at)"/></g><path fill="#F16522" fill-rule="nonzero" d="M22.974 12.42a6.953 6.953 0 0 0-2.668-5.48h-.001a6.953 6.953 0 0 0-2.669 5.48 6.952 6.952 0 0 0 2.669 5.479h.001a6.95 6.95 0 0 0 2.668-5.48"/></g><g transform="translate(45)"><rect width="40" height="24" fill="#FFF" fill-rule="nonzero" rx="3"/><path fill="#0066B2" fill-rule="nonzero" d="M17.22 7.6l-1.42 8.621h2.272l1.42-8.62zM13.888 7.6l-2.166 5.93-.256-1.277-.765-3.876S10.608 7.6 9.623 7.6H6.042L6 7.746s1.095.225 2.377.986l1.974 7.49h2.367L16.334 7.6h-2.446zM29.26 13.172l1.195-3.226.671 3.226h-1.865zm2.501 3.05h2.087L32.028 7.6h-1.827c-.843 0-1.049.642-1.049.642l-3.388 7.979h2.368l.474-1.281h2.888l.267 1.28z"/><g transform="translate(19 7)"><mask id="av" fill="#fff"><use xlink:href="#au"/></mask><path fill="#0066B2" fill-rule="nonzero" d="M6.941 2.674L7.266.822S6.265.446 5.222.446C4.094.446 1.416.933 1.416 3.3c0 2.227 3.144 2.255 3.144 3.424 0 1.17-2.82.96-3.75.223L.472 8.883s1.015.487 2.565.487 3.89-.794 3.89-2.952c0-2.241-3.17-2.45-3.17-3.424 0-.975 2.212-.85 3.184-.32" mask="url(#av)"/></g><g transform="translate(6 7)"><mask id="ax" fill="#fff"><use xlink:href="#aw"/></mask><path fill="#F9A533" fill-rule="nonzero" d="M5.466 5.253L4.7 1.377S4.61.6 3.623.6H.042L0 .746S1.72 1.1 3.373 2.42C4.95 3.681 5.466 5.253 5.466 5.253" mask="url(#ax)"/></g></g><g fill-rule="nonzero"><rect width="40" height="24" fill="#4C2A86" rx="3"/><g fill="#FFF"><path d="M15 7v1.501h.809l3.55 7.466c.3.63.945 1.033 1.652 1.033h.306L25 8.501V7h-3.082v1.501h.943l-2.291 5.63-2.527-5.63h.955V7H15zM10 15.269c-1.671 0-3.026-1.464-3.026-3.269 0-1.805 1.355-3.268 3.026-3.268 1.671 0 3.026 1.463 3.026 3.268 0 1.805-1.355 3.269-3.026 3.269M10 7a5 5 0 1 0 0 10 5 5 0 0 0 0-10M30.5 15.269c-1.671 0-3.026-1.464-3.026-3.269 0-1.805 1.355-3.268 3.026-3.268 1.671 0 3.026 1.463 3.026 3.268 0 1.805-1.355 3.269-3.026 3.269M30.5 7a5 5 0 1 0 0 10 5 5 0 0 0 0-10"/></g></g></g></svg>